<?xml version="1.0" encoding="utf-8"?>
<!-- Generator: Adobe Illustrator 18.0.0, SVG Export Plug-In . SVG Version: 6.00 Build 0)  -->
<svg version="1.2" baseProfile="tiny" xmlns="http://www.w3.org/2000/svg" xmlns:xlink="http://www.w3.org/1999/xlink" x="0px"
	 y="0px" viewBox="0 0 1218.9 625.7" xml:space="preserve">
<g id="Background">
	<rect x="0" y="0" fill-rule="evenodd" fill="#5896CC" width="1218.9" height="1218.9"/>
</g>
<g id="Objects">
	<path fill-rule="evenodd" fill="#4A80B0" d="M971.1,473.6h17.9v6.6v27.4v6.6h-17.9c-9.4,0-17.1-7.7-17.1-17.1v-6.4
		C954,481.3,961.7,473.6,971.1,473.6L971.1,473.6z M881,1218.9v-170.1l4.7,65.8c0.2,3.1-0.4,6.1-1.7,8.7l8.2-2.6l12.8,40.2l5.9-1.9
		l19.3,59.9H881L881,1218.9z M881,910.4V654.6l0,0h5.5l0.2,0l0.2,0l0.2,0l0.2,0l0.2,0l0.2,0l0.2,0l0,0l0.2,0l0.2,0l0.2,0l0.2,0
		l0.2,0l0.2,0l0,0l0.2,0.1l0.2,0.1l0.1,0.1l0,0l0.1,0.1l0,0l0.1,0.1v0l0.1,0.1l0,0l0.1,0.1l0.1,0.1l0,0l0.1,0.1l0.1,0.1l0.1,0.1l0,0
		l0.1,0.1l0,0l0.1,0.1l0.1,0.1h0l0.1,0.1l0.1,0.1l0.1,0.1h0l0.1,0.1l0.1,0.1h0l0.1,0.1l0.1,0.1l0.1,0.1l0.1,0.1l0,0l0.1,0.1l0.1,0.1
		l0.1,0.1l0,0l0.1,0.1l0,0l0.1,0.1l0.1,0.1l0.1,0.1h0l0.1,0.1l0.1,0.1h0c0,0.1,0.1,0.2,0.1,0.3l0.1,0.1l0.1,0.1l0,0l0.1,0.2h0
		l0.1,0.2l0.1,0.2l0,0l0,0.2l0,0c0,0.1,0.1,0.2,0.1,0.3v0l0,0.2l0,0l0,0.2l0,0l0,0.2h0c0,0.1,0,0.2,0,0.3c0,0.1,0,0.2,0,0.3l0,0
		l0,0.2l0,0.2v0v9.6v7.7v204.8l0,0h0L881,910.4L881,910.4L881,910.4z M881,601.2V523l34.8,54.9c9.7,15.3,7.8,23.3-7.5,23.3H881
		L881,601.2z M1002.5,1063.9L1002.5,1063.9v-9.9h82.9v55.3l0,0v27.6l0,0h-17.7h-65.2V1063.9L1002.5,1063.9z M972.1,818.4l-1-4.4
		c-0.6-2.8,1.2-5.6,4-6.2l7.9-1.7c-4.5-34.3,18-66.9,52.4-74.3c36.3-7.9,72,15.2,79.9,51.4c7.9,36.3-15.2,72-51.4,79.9
		c-33.2,7.2-65.9-11.5-77.3-42.4l-8.3,1.8C975.5,823,972.7,821.2,972.1,818.4L972.1,818.4z M1143.7,654.6v32.3H944.3l0-32.3h86.7
		h4.9h3.8h8.7h3.8h8.7h3.8h8.7h3.8h8.7h3.8h8.7h3.8h8.7h3.8h8.7h3.8h6.2H1143.7L1143.7,654.6z M1171.6,395.6L1171.6,395.6v9.9h-82.9
		v-55.3l0,0v-27.6l0,0h17.7h65.2V395.6L1171.6,395.6z M978.9,241.6L978.9,241.6l0,85.8v3c0,1.9-1.6,3.5-3.5,3.5H975
		c0,5.6-6.4,9.3-8.2,9.3h-0.4v7.3c0,1-0.7,1.9-1.7,2v9.9c0,0.8-0.7,1-1.5,0.3l-5.9-4.7c-0.8-0.6-1.5-1.8-1.5-2.6v-2.9
		c-1-0.2-1.7-1-1.7-2v-7.3h-0.4c-1.8,0-8.2-3.7-8.2-9.3h-0.4c-1.9,0-3.5-1.6-3.5-3.5l0-90.3c0-1.9,1.6-3.5,3.5-3.5h0.4
		c0-2.7,2.2-4.9,4.9-4.9h19.7c2.7,0,4.9,2.2,4.9,4.9h0.4c1.9,0,3.5,1.6,3.5,3.5V241.6L978.9,241.6z M945.3,411.2v0.3
		c0,1.5,1.3,2.8,2.8,2.8h24.4c1.5,0,2.8-1.3,2.8-2.8v-0.3h0.2c1.9,0,3.5-1.6,3.5-3.5v-33.5c0-1.9-1.6-3.5-3.5-3.5h-30.3
		c-1.9,0-3.5,1.6-3.5,3.5v33.5c0,1.9,1.6,3.5,3.5,3.5H945.3L945.3,411.2z M1028.2,388.8l-6.5-13.8V314c0,0,1.7-3.4,4.3-5.6V359
		c0,0,0.8,0.6,2.2,1.3l0-171.5c0-2.5,0.8-4.9,2.3-6.8v-6.1c0-6.1,3-11.2,7-12.4v-4.7c0-1.1,0.9-2,1.9-2c1.1,0,1.9,0.9,1.9,2v4.8
		c4,1.3,6.9,6.3,6.9,12.4v5.9c1.5,1.9,2.4,4.3,2.4,6.9l0,172.3c0.3-0.1,0.6-0.3,0.9-0.4v28.5c0,0-0.3,0.2-0.9,0.4v1.7
		c0,2.6-0.9,5-2.4,6.9v3.3c0,7-4,12.7-8.9,12.7c-4.9,0-8.9-5.7-8.9-12.7v-3.4c-1.4-1.9-2.3-4.2-2.3-6.8V388.8L1028.2,388.8z
		 M1027.3,484.5h-20.9v21.2h20.9v1.8v6.6h59.4c9.4,0,17.1-7.7,17.1-17.1v-6.4c0-9.4-7.7-17.1-17.1-17.1h-59.4v6.6V484.5
		L1027.3,484.5z M1154.9,287.6l-49.8,0c-9.4,0-17.2-7.7-17.1-17.2l0.1-133.8c0-9.4,7.7-17.2,17.2-17.1l49.8,0
		c9.4,0,17.2,7.7,17.1,17.2l-0.1,133.8C1172.1,279.9,1164.4,287.6,1154.9,287.6L1154.9,287.6z M1043.8,942.4
		c-5.9,0.1-29.9-6.7-46.9-8.3c-17.1-1.6-42.4,0.1-46.8,1.5c-5.3,1.6-5.4,2-5.7,6s0.3,7.4,3.4,8.5c3.9,1.4,4.2,6.1,6.3,19.4
		c-1.8,6-2.2,12-2.2,15.7c-0.1,7.2,6.6,10.3,9.4,3.4c4.9,5.7,13.3,9.8,28.1,11.1c25.9,2.3,34.8-14.3,37.7-19.6
		c5.1-9.5,3.8-22.8,16.9-22.6c13.1,0.2,11.6,13.2,16.5,22.8c2.7,5.4,11,22.5,37,20.9c14.8-0.9,23.3-4.7,28.4-10.4
		c2.6,7,9.4,4.1,9.5-3.1c0-3.7-0.2-9.8-1.9-15.8c2.5-13.1,2.8-17.8,6.8-19.1c3.1-1,3.8-4.4,3.6-8.4c-0.2-4-0.3-4.4-5.5-6.2
		c-4.4-1.5-29.7-3.9-46.8-2.7C1076,936.4,1057.6,942.3,1043.8,942.4z M881,523v78.2H439.7v-91.6h372.8v-5.8H439.7V165.4h6.8
		c0.6-0.4,1.1-0.9,1.7-1.3l0.1-26.1l-8.4,0l0.1-28.1l-0.2,0V0h45.7h54.6v110.1l-9.1,0l-0.1,28.1l-8.4,0l0,23
		c2.4,1.3,4.6,2.7,6.5,4.3h197.3c1.8-1.4,3.8-2.7,6-3.9l0.1-22.9l-8.4,0l0.1-28.1l-9.1,0L714.7,0h54.6h54.6l0.2,110.7l-9.1,0
		l-0.1,28.1l-8.4,0l-0.1,26.1c0.2,0.2,0.5,0.4,0.7,0.5h54c6.2,0,11.3,5.1,11.3,11.4v315.7c0,6.2-5.1,11.4-11.3,11.4h-23.8v5.8h35.1
		L881,523L881,523z M881,654.6v255.8l-4-9l-8-18.2V670.8v-9.6c0-3.6,2.9-6.5,6.5-6.5H881L881,654.6z M881,1048.8l-5.4-74.9
		c-0.7-9.8-9.1-17.3-18.9-16.7l0,0c-1.1,0.1-2.2,0.2-3.3,0.5l-0.1-1c-0.7-10.2-9.5-18.1-19.8-17.5l0,0c-3,0.2-5.8,1.1-8.3,2.5
		l-0.3-0.8c-0.6-3-1.8-5.8-3.5-8.1l-27.1-63V654.6H458v289.6l-18.3,29.2v57l18.3-29.2l0,42.8l-18.3,10.4v41.2l18.3-12.3v47h336.3
		v-19l3.4,10.6l1.4,19c0.2,3.2,1.2,6.2,2.7,8.8l-5.7,1.8l12.8,40.2l-6.6,2.1l8.2,25.3H881V1048.8L881,1048.8z M439.7,956v-18.2
		c3.1,4,4.3,9.6,1.3,15.6L439.7,956z M439.7,0v109.9l-8.9,0V0h0H439.7L439.7,0z M439.7,165.4v338.4h-16.6v5.8h16.6v91.6H328.4
		c-13.9,0-18.2-6.5-12.5-15.5l48.5-76.1h33.8v-5.8h-23.8c-6.2,0-11.4-5.1-11.4-11.4v-41c-32.9,8.2-68.1,12.6-99.6,10.9
		c-4-0.2-7.8-0.5-11.7-1v-3.8c3.9,0.4,7.9,0.8,11.9,1c31.4,1.7,66.6-2.8,99.4-11V176.8c0-6.2,5.1-11.4,11.4-11.4H439.7L439.7,165.4z
		 M439.7,937.8V956l-21.5,43.7c0.9,1.3,1.7,2.6,2.5,3.9l19-30.2v57l-0.9,1.4c-4.9,9-10.6,20-17.4,33l18.3-10.4v41.2l-37.5,25.1
		c-5.1,3.4-11.7,5-19.1,5l-12.3,23.6l8.7,4.5l-20,39.6l8.9,4.7l-10.8,20.9H251.9v-71.7l4-7.8l9.8,5.1l20-39.6l8.7,4.5l14-26.9
		c-10.6-22-8-51.2,10-87l13.7-49.2c6-20.7,35.2-12.1,29,8.8l-6.1,20.5c1.3-0.6,2.9-0.9,4.5-1.2l16.2-39c8.1-20.2,35-6.4,28.3,10.6
		l-12.8,32.6c0.9,0.2,2.5,1,3.1,1.3l19.6-40C419.7,928,433.6,930,439.7,937.8L439.7,937.8z M251.9,1014.2l3.4-3.2l14.8-14.1h0
		l18.8-18l-30.4-31.8l-3.1,2.9l-3.5-2.1V1014.2L251.9,1014.2z M251.9,871.2V654.6h165.9v216.7H251.9L251.9,871.2z M251.9,346.1
		c27.4-9.9,40.8-25.7,44.4-41.7c3.4-15-1.7-30.1-11.9-40.8c-8.2-8.6-19.6-14.3-32.5-14.8v3.8c11.7,0.5,22.2,5.8,29.7,13.6
		c9.3,9.8,14.1,23.6,11,37.3c-3.3,14.6-15.6,29.1-40.7,38.5V346.1z M251.9,248.8v3.8c-2.9-0.1-5.8,0-8.8,0.5
		c-21.2,3.4-44.9,22.6-62.9,68.4c-2.1,5.4-4,10.6-5.6,15.7c6.2,4.9,13.4,8.6,21.7,10.6c12.2,3,26.7,2.6,44-2.1
		c4.1-1.1,8-2.4,11.6-3.7v4.1c-3.3,1.2-6.8,2.3-10.6,3.3c-18,4.9-33.2,5.3-45.9,2.1c-8.3-2.1-15.6-5.6-22-10.4
		c-4.1,13.8-6.1,26.2-6.3,37.2v-28.2c0.9-3.7,1.9-7.6,3.1-11.6c-1.1-0.9-2.1-1.9-3.1-2.9v-5.5c1.4,1.6,2.8,3,4.4,4.4
		c1.5-4.6,3.2-9.4,5.2-14.4c18.6-47.3,43.5-67.2,65.9-70.8C245.6,248.8,248.8,248.6,251.9,248.8L251.9,248.8z M251.9,457.5v3.8
		c-21.5-2.4-40.8-8-55.9-17.7c-13.6-8.8-23.8-20.9-29-36.9v-23.8c0.1,2.4,0.2,4.7,0.4,6.9c2.3,23.2,13.6,39.7,30.6,50.6
		C212.5,449.8,231.1,455.2,251.9,457.5L251.9,457.5z M251.9,654.6v216.7H167V654.6H251.9L251.9,654.6z M251.9,947.9v66.2l-5.4,5.2h0
		l-4.7,4.5h0l-18.8,18l0,0l-11.4,10.8l-12.2,11.6l0,0l-6.9,6.6l1.2,2l-2.1,1.2l0.6,2.2l-2.3,0.6l0,2.2l-2.4,0l-0.6,2.2l-2.3-0.6
		l-0.7,1.2c0.8,7.4,0.5,15-1.1,22.3c-2.3,10.4-6.7,22.1-15.1,29.2c-0.2,0.2-0.5,0.4-0.7,0.6v-4.3c2.3-2.2,4.3-4.9,5.4-6.8
		c7.3-12.5,9.8-26.8,8.4-40.9l-1,1l-1-1l-11.7,7.1V928.5l16.3,0l0.8-3.1l0,0l0.3-1l36.4,10l2.2-3.7L251.9,947.9L251.9,947.9z
		 M251.9,1147.2v71.7h-36.9L251.9,1147.2L251.9,1147.2z M167,596V463.2c26.7,4.1,49.3,24.2,55.4,52.2c7.9,36.3-15.2,72-51.4,79.9
		C169.6,595.6,168.3,595.8,167,596L167,596z M167,186v-80.4c5.6,7.7,9.8,17.3,11.9,28C182.9,154.2,177.8,173.8,167,186z M167,105.6
		V186c-5.2,5.9-11.8,10-19.3,11.6l0,0l0,0l0,0l0,0h0c-0.2,0.1-0.5,0.1-0.7,0.2l0,0l0,0l0,0l0,0c-0.3,0-0.5,0.1-0.8,0.1l0,0l0,0l0,0
		l0,0c-1.7,0.3-3.3,0.4-5,0.4c-2.7,30.9-1.8,64.1,5.7,91.5c4,14.6,9.8,27.5,18,37.6c0.7,0.9,1.5,1.8,2.3,2.7v5.5
		c-1.8-1.8-3.6-3.8-5.2-5.8c-8.5-10.5-14.6-23.9-18.7-39c-7.6-27.8-8.5-61.4-5.9-92.7c-20.1-2-38.7-21.5-43.8-48.2
		c-5.9-30.9,8.4-59.6,32-64.1C140.9,82.9,156.4,91,167,105.6L167,105.6z M167,350.1v28.2c0,1.6,0,3.1,0,4.6v23.8
		c-1.6-5.1-2.8-10.6-3.4-16.5C162.5,378.6,163.5,365.2,167,350.1L167,350.1z M167,463.2V596c-31.8,4.9-62.4-13.4-73.3-43.1l-8.3,1.8
		c-2.8,0.6-5.6-1.2-6.2-4l-1-4.4c-0.6-2.8,1.2-5.6,4-6.2l7.9-1.7c-4.5-34.3,18-66.9,52.4-74.3C150.8,462.2,159.1,462,167,463.2
		L167,463.2z M167,654.6v216.7H78V654.6H167L167,654.6z M167,928.5v160.6l-10.7,6.5c0.3,0.3,0.4,0.7,0.2,1.2
		c-1.4,5-2.2,10.5-2.9,15.6c-0.6,5.2-1.5,11.6,0.4,16.7c2.9,7.7,8.5,5,13,0.7v4.3c-5.3,4-12,4-15.2-2.5c-2.6-5.2-1.9-12.1-1.3-17.6
		c0.6-5.8,1.5-12.2,3.1-17.8c0.3-1.1,1.4-1.3,2.1-0.9l-4.4-7.3l-1.4,0.4l-1.4-5.1l-2.3-3.8h-0.2l0-0.4l-3.9-6.5h0l-13.5-22.3h0
		l-3.4-5.6h0l-8.2-13.6l-8.6-14.2l0,0l-10.8-17.9l-6-10l-2.8-4.7l-10.1-16.7h0l-0.6-0.9l32.3-19.5l-0.9-3.1h0l-0.3-1l36.3-10.2
		l0-4.3L167,928.5z"/>
	<g>
		<g>
			<path fill-rule="evenodd" fill="#FFFFFF" d="M416.4,1182.5c0.5,0,0.9-0.1,1.4-0.4c0.4-0.3,0.7-0.7,1-1.2c0.2-0.5,0.4-1.2,0.4-2
				c0-0.8-0.1-1.4-0.4-1.9c-0.2-0.5-0.6-1-1-1.2c-0.4-0.3-0.9-0.4-1.3-0.4v-2c0.5,0.1,0.9,0.2,1.2,0.4c0.6,0.3,1.1,0.7,1.6,1.3v-4.2
				c0-0.6,0.1-1,0.3-1.3c0.2-0.3,0.6-0.4,1-0.4c0.4,0,0.8,0.1,1,0.4c0.2,0.3,0.4,0.7,0.4,1.2v12.5c0,0.5-0.1,0.9-0.4,1.2
				c-0.3,0.3-0.6,0.4-1,0.4c-0.4,0-0.7-0.1-1-0.4c-0.3-0.3-0.4-0.7-0.4-1.2v-0.3c-0.4,0.4-0.8,0.8-1.1,1.1c-0.4,0.3-0.8,0.5-1.2,0.6
				c-0.2,0.1-0.4,0.1-0.5,0.1V1182.5z M413.6,1178.9c0,0.8,0.1,1.4,0.4,2c0.2,0.5,0.6,0.9,1,1.2c0.4,0.3,0.9,0.4,1.4,0.4h0v2.1
				c-0.3,0.1-0.6,0.1-0.9,0.1c-0.7,0-1.3-0.1-1.9-0.4c-0.6-0.3-1.1-0.7-1.5-1.2c-0.4-0.5-0.7-1.2-1-1.9c-0.2-0.7-0.3-1.5-0.3-2.3
				c0-1.8,0.4-3.2,1.3-4.1c0.9-1,2-1.5,3.4-1.5c0.3,0,0.6,0,0.8,0.1v2h0c-0.5,0-1,0.1-1.4,0.4c-0.4,0.3-0.7,0.7-0.9,1.3
				C413.8,1177.5,413.6,1178.1,413.6,1178.9z"/>
			<path fill-rule="evenodd" fill="#FFFFFF" d="M429.7,1178h2.6c-0.1-1-0.3-1.7-0.8-2.2c-0.5-0.5-1-0.7-1.8-0.7v-2h0.1
				c1.1,0,2.1,0.2,2.8,0.7c0.8,0.5,1.4,1.1,1.8,1.8c0.4,0.7,0.6,1.5,0.6,2.3c0,0.7-0.2,1.2-0.6,1.4c-0.4,0.2-1,0.3-1.7,0.3h-3V1178
				L429.7,1178z M429.7,1184.7v-1.9c0.1,0,0.1,0,0.2,0c0.3,0,0.6,0,0.9-0.1c0.3-0.1,0.5-0.2,0.8-0.4c0.3-0.2,0.5-0.4,0.7-0.5
				c0.2-0.2,0.5-0.5,0.9-0.8c0.1-0.1,0.4-0.2,0.6-0.2c0.3,0,0.5,0.1,0.7,0.2c0.2,0.2,0.3,0.4,0.3,0.7c0,0.3-0.1,0.6-0.3,0.9
				c-0.2,0.3-0.5,0.7-0.9,1c-0.4,0.3-0.9,0.6-1.5,0.8c-0.6,0.2-1.3,0.3-2.1,0.3C429.9,1184.7,429.8,1184.7,429.7,1184.7z
				 M427.1,1178h2.6v1.6h-2.6c0,0.6,0.1,1.2,0.4,1.7c0.3,0.5,0.6,0.9,1,1.1c0.4,0.2,0.7,0.3,1.2,0.4v1.9c-1.7-0.1-3-0.6-4-1.6
				c-1-1-1.5-2.4-1.5-4.2c0-0.8,0.1-1.6,0.4-2.3c0.3-0.7,0.6-1.3,1.1-1.8c0.5-0.5,1.1-0.9,1.8-1.2c0.7-0.3,1.4-0.4,2.2-0.4v2h0
				c-0.7,0-1.3,0.2-1.7,0.7C427.5,1176.3,427.2,1177,427.1,1178z"/>
			<path fill-rule="evenodd" fill="#FFFFFF" d="M446.5,1181c0,0.8-0.2,1.4-0.6,2c-0.4,0.6-0.9,1-1.7,1.3c-0.7,0.3-1.7,0.4-2.7,0.4
				c-1,0-1.9-0.2-2.6-0.5c-0.7-0.3-1.3-0.7-1.6-1.2c-0.3-0.5-0.5-0.9-0.5-1.4c0-0.3,0.1-0.6,0.3-0.8c0.2-0.2,0.5-0.3,0.8-0.3
				c0.3,0,0.5,0.1,0.7,0.2c0.2,0.1,0.3,0.3,0.5,0.6c0.3,0.5,0.6,0.9,1,1.1c0.4,0.3,1,0.4,1.7,0.4c0.6,0,1-0.1,1.4-0.4
				c0.4-0.3,0.5-0.5,0.5-0.9c0-0.5-0.2-0.9-0.6-1.1c-0.4-0.2-1-0.4-1.9-0.7c-1-0.2-1.8-0.5-2.4-0.8c-0.6-0.3-1.1-0.6-1.5-1.1
				c-0.4-0.4-0.6-1-0.6-1.6c0-0.6,0.2-1.1,0.5-1.6c0.3-0.5,0.8-0.9,1.5-1.2c0.7-0.3,1.5-0.5,2.4-0.5c0.7,0,1.4,0.1,2,0.2
				c0.6,0.2,1.1,0.4,1.5,0.6c0.4,0.3,0.7,0.5,0.9,0.8c0.2,0.3,0.3,0.6,0.3,0.9c0,0.3-0.1,0.6-0.3,0.8c-0.2,0.2-0.5,0.3-0.9,0.3
				c-0.3,0-0.5-0.1-0.7-0.2c-0.2-0.2-0.4-0.4-0.7-0.8c-0.2-0.3-0.5-0.5-0.8-0.7c-0.3-0.2-0.7-0.3-1.2-0.3c-0.5,0-0.9,0.1-1.3,0.3
				c-0.3,0.2-0.5,0.5-0.5,0.8c0,0.3,0.1,0.5,0.4,0.7c0.3,0.2,0.6,0.4,1,0.5c0.4,0.1,1,0.3,1.7,0.5c0.9,0.2,1.6,0.5,2.2,0.8
				c0.6,0.3,1,0.6,1.3,1.1C446.4,1180,446.5,1180.4,446.5,1181z"/>
			<path fill-rule="evenodd" fill="#FFFFFF" d="M451.8,1174.7v8.2c0,0.6-0.1,1-0.4,1.3c-0.3,0.3-0.6,0.4-1,0.4c-0.4,0-0.8-0.1-1-0.4
				c-0.3-0.3-0.4-0.7-0.4-1.3v-8.1c0-0.6,0.1-1,0.4-1.3c0.3-0.3,0.6-0.4,1-0.4c0.4,0,0.8,0.1,1,0.4
				C451.6,1173.8,451.8,1174.2,451.8,1174.7L451.8,1174.7z M450.4,1171.8c-0.4,0-0.7-0.1-1-0.4c-0.3-0.2-0.4-0.6-0.4-1
				c0-0.4,0.1-0.7,0.4-1c0.3-0.3,0.6-0.4,1-0.4c0.4,0,0.7,0.1,1,0.3c0.3,0.2,0.4,0.6,0.4,1c0,0.4-0.1,0.8-0.4,1
				C451.1,1171.7,450.7,1171.8,450.4,1171.8z"/>
			<path fill-rule="evenodd" fill="#FFFFFF" d="M459.6,1182.3c0.5,0,0.9-0.1,1.3-0.4c0.4-0.3,0.8-0.6,1-1.1c0.3-0.5,0.4-1.1,0.4-1.9
				c0-1.2-0.3-2.1-0.8-2.7c-0.5-0.6-1.2-1-2-1v-2c0.4,0.1,0.8,0.2,1.2,0.4c0.6,0.3,1.1,0.8,1.6,1.4v-0.4c0-0.5,0.1-0.9,0.4-1.1
				c0.2-0.3,0.6-0.4,0.9-0.4c0.5,0,0.9,0.2,1.1,0.5c0.2,0.4,0.3,0.9,0.3,1.5v8.2c0,0.9-0.1,1.8-0.3,2.4c-0.2,0.7-0.5,1.2-1,1.7
				c-0.4,0.4-1,0.8-1.7,1c-0.7,0.2-1.5,0.3-2.5,0.3v-2c0.6,0,1.1-0.1,1.5-0.3c0.4-0.2,0.7-0.5,0.9-0.9c0.2-0.4,0.3-0.8,0.3-1.2
				c0-0.4,0.1-1.1,0.1-2c-0.4,0.6-0.9,1.1-1.5,1.4c-0.3,0.2-0.7,0.3-1.2,0.4V1182.3z M456.9,1178.8c0,1.1,0.3,2,0.8,2.6
				c0.5,0.6,1.2,0.9,1.9,0.9h0v2c-0.3,0-0.6,0.1-0.9,0.1c-0.9,0-1.8-0.2-2.5-0.7c-0.7-0.5-1.3-1.2-1.6-2c-0.4-0.9-0.6-1.9-0.6-3
				c0-0.8,0.1-1.6,0.3-2.3c0.2-0.7,0.6-1.3,1-1.7c0.4-0.5,0.9-0.8,1.5-1.1c0.6-0.2,1.2-0.4,1.8-0.4c0.3,0,0.6,0,0.9,0.1v2h0
				c-0.8,0-1.5,0.3-1.9,0.9C457.1,1176.8,456.9,1177.7,456.9,1178.8L456.9,1178.8z M459.6,1186.9v2l-0.2,0c-1,0-1.9-0.1-2.6-0.4
				c-0.8-0.3-1.4-0.6-1.8-1.1c-0.4-0.4-0.6-0.9-0.6-1.3c0-0.3,0.1-0.6,0.4-0.8c0.2-0.2,0.5-0.3,0.8-0.3c0.4,0,0.8,0.2,1.1,0.5
				c0.2,0.2,0.3,0.4,0.5,0.6c0.2,0.2,0.3,0.4,0.5,0.5c0.2,0.1,0.4,0.2,0.7,0.3c0.3,0.1,0.6,0.1,1,0.1L459.6,1186.9z"/>
			<path fill-rule="evenodd" fill="#FFFFFF" d="M470.6,1174.7v0.3c0.5-0.7,1-1.1,1.6-1.4c0.6-0.3,1.3-0.5,2-0.5c0.7,0,1.4,0.2,2,0.5
				c0.6,0.3,1,0.8,1.3,1.4c0.2,0.3,0.3,0.7,0.4,1.1c0.1,0.4,0.1,0.9,0.1,1.5v5.3c0,0.6-0.1,1-0.4,1.3c-0.3,0.3-0.6,0.4-1,0.4
				c-0.4,0-0.8-0.1-1-0.4c-0.3-0.3-0.4-0.7-0.4-1.3v-4.7c0-0.9-0.1-1.7-0.4-2.1c-0.3-0.5-0.8-0.7-1.6-0.7c-0.5,0-1,0.2-1.4,0.5
				c-0.4,0.3-0.7,0.7-0.9,1.2c-0.1,0.4-0.2,1.2-0.2,2.4v3.6c0,0.6-0.1,1-0.4,1.3c-0.3,0.3-0.6,0.4-1,0.4c-0.4,0-0.7-0.1-1-0.4
				c-0.3-0.3-0.4-0.7-0.4-1.3v-8.2c0-0.5,0.1-0.9,0.4-1.2c0.2-0.3,0.6-0.4,1-0.4c0.2,0,0.5,0.1,0.7,0.2c0.2,0.1,0.4,0.3,0.5,0.5
				C470.5,1174.1,470.6,1174.4,470.6,1174.7z"/>
			<path fill-rule="evenodd" fill="#FFFFFF" d="M485.8,1178h2.6c-0.1-1-0.3-1.7-0.8-2.2c-0.5-0.5-1-0.7-1.8-0.7v-2h0.1
				c1.1,0,2.1,0.2,2.8,0.7c0.8,0.5,1.4,1.1,1.8,1.8c0.4,0.7,0.6,1.5,0.6,2.3c0,0.7-0.2,1.2-0.6,1.4c-0.4,0.2-1,0.3-1.7,0.3h-3V1178
				L485.8,1178z M485.8,1184.7v-1.9c0.1,0,0.1,0,0.2,0c0.3,0,0.6,0,0.9-0.1c0.3-0.1,0.6-0.2,0.8-0.4c0.3-0.2,0.5-0.4,0.7-0.5
				c0.2-0.2,0.5-0.5,0.9-0.8c0.1-0.1,0.4-0.2,0.6-0.2c0.3,0,0.5,0.1,0.7,0.2c0.2,0.2,0.3,0.4,0.3,0.7c0,0.3-0.1,0.6-0.3,0.9
				c-0.2,0.3-0.5,0.7-0.9,1c-0.4,0.3-0.9,0.6-1.5,0.8c-0.6,0.2-1.3,0.3-2.1,0.3C486,1184.7,485.9,1184.7,485.8,1184.7z M483.2,1178
				h2.6v1.6h-2.6c0,0.6,0.1,1.2,0.4,1.7c0.3,0.5,0.6,0.9,1,1.1c0.4,0.2,0.8,0.3,1.2,0.4v1.9c-1.7-0.1-3-0.6-4-1.6
				c-1-1-1.5-2.4-1.5-4.2c0-0.8,0.1-1.6,0.4-2.3c0.2-0.7,0.6-1.3,1.1-1.8c0.5-0.5,1.1-0.9,1.8-1.2c0.7-0.3,1.4-0.4,2.2-0.4v2h0
				c-0.7,0-1.3,0.2-1.7,0.7C483.6,1176.3,483.3,1177,483.2,1178z"/>
			<path fill-rule="evenodd" fill="#FFFFFF" d="M498.4,1182.5c0.5,0,0.9-0.1,1.4-0.4c0.4-0.3,0.7-0.7,1-1.2c0.2-0.5,0.4-1.2,0.4-2
				c0-0.8-0.1-1.4-0.4-1.9c-0.2-0.5-0.6-1-1-1.2c-0.4-0.3-0.9-0.4-1.3-0.4v-2c0.5,0.1,0.9,0.2,1.2,0.4c0.6,0.3,1.1,0.7,1.6,1.3v-4.2
				c0-0.6,0.1-1,0.3-1.3c0.2-0.3,0.6-0.4,1-0.4c0.4,0,0.8,0.1,1,0.4c0.2,0.3,0.3,0.7,0.3,1.2v12.5c0,0.5-0.1,0.9-0.4,1.2
				c-0.2,0.3-0.6,0.4-1,0.4c-0.4,0-0.7-0.1-1-0.4c-0.3-0.3-0.4-0.7-0.4-1.2v-0.3c-0.4,0.4-0.8,0.8-1.1,1.1c-0.4,0.3-0.8,0.5-1.2,0.6
				c-0.2,0.1-0.4,0.1-0.5,0.1V1182.5z M495.7,1178.9c0,0.8,0.1,1.4,0.4,2c0.2,0.5,0.6,0.9,1,1.2c0.4,0.3,0.9,0.4,1.4,0.4h0v2.1
				c-0.3,0.1-0.6,0.1-0.9,0.1c-0.7,0-1.3-0.1-1.9-0.4c-0.6-0.3-1.1-0.7-1.5-1.2c-0.4-0.5-0.7-1.2-1-1.9c-0.2-0.7-0.3-1.5-0.3-2.3
				c0-1.8,0.4-3.2,1.3-4.1c0.9-1,2-1.5,3.4-1.5c0.3,0,0.6,0,0.8,0.1v2h0c-0.5,0-1,0.1-1.4,0.4c-0.4,0.3-0.7,0.7-1,1.3
				C495.8,1177.5,495.7,1178.1,495.7,1178.9z"/>
			<path fill-rule="evenodd" fill="#FFFFFF" d="M517.6,1182.5L517.6,1182.5c0.8,0,1.4-0.3,1.9-0.9c0.5-0.6,0.8-1.5,0.8-2.7
				c0-0.8-0.1-1.4-0.3-1.9c-0.2-0.5-0.5-1-0.9-1.3c-0.4-0.3-0.9-0.4-1.4-0.4l-0.1,0v-2c0.3,0,0.5-0.1,0.8-0.1c0.9,0,1.8,0.2,2.5,0.7
				c0.7,0.4,1.3,1.1,1.7,1.9c0.4,0.8,0.6,1.9,0.6,3c0,0.9-0.1,1.6-0.3,2.4c-0.2,0.7-0.5,1.3-1,1.9c-0.4,0.5-0.9,0.9-1.5,1.2
				c-0.6,0.3-1.2,0.4-2,0.4c-0.3,0-0.6,0-0.8-0.1V1182.5z M514.8,1179c0,1.1,0.3,2,0.8,2.6c0.5,0.6,1.1,0.9,1.9,0.9v2.1
				c-0.1,0-0.3-0.1-0.4-0.1c-0.4-0.1-0.7-0.2-1-0.4c-0.3-0.2-0.5-0.3-0.7-0.5c-0.2-0.2-0.4-0.4-0.7-0.8v0.3c0,0.5-0.1,0.9-0.4,1.2
				c-0.3,0.3-0.6,0.4-1,0.4c-0.4,0-0.7-0.1-1-0.4c-0.2-0.3-0.4-0.7-0.4-1.2v-12.4c0-0.6,0.1-1,0.3-1.3c0.2-0.3,0.6-0.4,1-0.4
				c0.4,0,0.8,0.1,1,0.4c0.2,0.3,0.4,0.7,0.4,1.2v4.3c0.5-0.6,1.1-1,1.6-1.3c0.4-0.2,0.8-0.3,1.2-0.4v2c-0.5,0-1,0.2-1.3,0.4
				c-0.4,0.3-0.8,0.7-1,1.3C515,1177.5,514.8,1178.2,514.8,1179z"/>
			<path fill-rule="evenodd" fill="#FFFFFF" d="M527.7,1185l0.3-0.6l-3.5-8.8c-0.2-0.5-0.3-0.9-0.3-1.1c0-0.2,0.1-0.5,0.2-0.7
				c0.1-0.2,0.3-0.4,0.5-0.5c0.2-0.1,0.4-0.2,0.7-0.2c0.4,0,0.7,0.1,0.9,0.4c0.2,0.3,0.4,0.6,0.6,1.1l2.4,7l2.3-6.5
				c0.2-0.5,0.3-0.9,0.5-1.2c0.1-0.3,0.3-0.5,0.5-0.6c0.2-0.1,0.4-0.2,0.7-0.2c0.2,0,0.4,0.1,0.6,0.2c0.2,0.1,0.3,0.3,0.5,0.5
				c0.1,0.2,0.2,0.4,0.2,0.6c0,0.1-0.1,0.3-0.1,0.6c-0.1,0.2-0.1,0.5-0.2,0.7l-3.7,9.7c-0.3,0.9-0.6,1.5-0.9,2
				c-0.3,0.5-0.7,0.9-1.2,1.1c-0.5,0.3-1.2,0.4-2,0.4c-0.8,0-1.5-0.1-1.9-0.3c-0.4-0.2-0.6-0.5-0.6-1c0-0.3,0.1-0.6,0.3-0.8
				c0.2-0.2,0.5-0.3,0.9-0.3c0.1,0,0.3,0,0.4,0.1c0.2,0,0.3,0.1,0.5,0.1c0.3,0,0.6,0,0.8-0.1c0.2-0.1,0.4-0.3,0.5-0.5
				C527.4,1185.8,527.5,1185.5,527.7,1185z"/>
		</g>
		<g>
			<path fill-rule="evenodd" fill="#FFFFFF" d="M591.5,1169.5h0.8v-1.1c0-1.1,0.1-2,0.4-2.6c0.3-0.7,0.8-1.1,1.4-1.4
				c0.7-0.3,1.6-0.4,2.8-0.4c2.1,0,3.1,0.5,3.1,1.5c0,0.3-0.1,0.6-0.3,0.8c-0.2,0.2-0.5,0.4-0.8,0.4c-0.1,0-0.4,0-0.7-0.1
				c-0.3-0.1-0.6-0.1-0.9-0.1c-0.6,0-1.1,0.2-1.2,0.6c-0.2,0.4-0.3,0.9-0.3,1.6v0.8h0.9c1.3,0,2,0.4,2,1.2c0,0.6-0.2,0.9-0.5,1.1
				c-0.4,0.2-0.9,0.2-1.5,0.2h-0.9v9.4c0,0.7-0.2,1.2-0.5,1.6c-0.3,0.4-0.8,0.5-1.3,0.5c-0.5,0-0.9-0.2-1.2-0.5
				c-0.3-0.4-0.5-0.9-0.5-1.6v-9.4h-1c-0.5,0-0.9-0.1-1.2-0.4c-0.3-0.2-0.4-0.5-0.4-0.9C589.7,1170,590.3,1169.5,591.5,1169.5z"/>
			<path fill-rule="evenodd" fill="#FFFFFF" d="M604.2,1178.5v3c0,0.7-0.2,1.3-0.5,1.6c-0.3,0.4-0.8,0.5-1.3,0.5
				c-0.5,0-0.9-0.2-1.3-0.5c-0.3-0.4-0.5-0.9-0.5-1.6v-9.9c0-1.6,0.6-2.4,1.7-2.4c0.6,0,1,0.2,1.3,0.6c0.3,0.4,0.4,0.9,0.4,1.6
				c0.4-0.7,0.9-1.3,1.3-1.6c0.4-0.4,1-0.6,1.8-0.6c0.7,0,1.5,0.2,2.2,0.6c0.7,0.4,1,0.9,1,1.5c0,0.4-0.1,0.8-0.4,1.1
				c-0.3,0.3-0.6,0.4-1,0.4c-0.1,0-0.4-0.1-0.9-0.2c-0.5-0.2-0.9-0.2-1.3-0.2c-0.5,0-0.9,0.1-1.3,0.4c-0.3,0.3-0.6,0.7-0.8,1.2
				c-0.2,0.5-0.3,1.2-0.4,1.9C604.2,1176.5,604.2,1177.4,604.2,1178.5z"/>
			<path fill-rule="evenodd" fill="#FFFFFF" d="M617.8,1175.3h3.2c-0.1-1.2-0.4-2.1-1-2.7c-0.6-0.6-1.3-0.9-2.2-0.9v-2.5h0.1
				c1.4,0,2.6,0.3,3.6,0.9c1,0.6,1.7,1.3,2.2,2.3c0.5,0.9,0.7,1.9,0.7,2.8c0,0.9-0.3,1.5-0.8,1.7c-0.5,0.3-1.2,0.4-2.2,0.4h-3.7
				V1175.3L617.8,1175.3z M617.8,1183.6v-2.3c0.1,0,0.2,0,0.3,0c0.4,0,0.8,0,1.2-0.1c0.3-0.1,0.7-0.3,1-0.5c0.3-0.2,0.6-0.4,0.9-0.7
				c0.3-0.2,0.6-0.6,1.1-1c0.2-0.2,0.4-0.2,0.8-0.2c0.4,0,0.7,0.1,0.9,0.3c0.2,0.2,0.3,0.5,0.3,0.8c0,0.3-0.1,0.7-0.4,1.1
				c-0.3,0.4-0.6,0.8-1.1,1.2c-0.5,0.4-1.1,0.7-1.9,1c-0.8,0.3-1.6,0.4-2.6,0.4C618,1183.6,617.9,1183.6,617.8,1183.6z
				 M614.6,1175.3h3.2v2h-3.2c0,0.8,0.2,1.5,0.5,2.1c0.3,0.6,0.7,1.1,1.3,1.4c0.4,0.3,0.9,0.4,1.5,0.5v2.3c-2.1-0.1-3.7-0.7-4.9-1.9
				c-1.3-1.3-1.9-3.1-1.9-5.3c0-1,0.2-2,0.5-2.9c0.3-0.9,0.8-1.7,1.4-2.3c0.6-0.6,1.3-1.1,2.2-1.5c0.8-0.3,1.8-0.5,2.8-0.5v2.5h0
				c-0.9,0-1.6,0.3-2.2,0.9C615,1173.2,614.7,1174.1,614.6,1175.3z"/>
			<path fill-rule="evenodd" fill="#FFFFFF" d="M633.6,1175.3h3.2c-0.1-1.2-0.4-2.1-1-2.7c-0.6-0.6-1.3-0.9-2.2-0.9v-2.5h0.1
				c1.4,0,2.6,0.3,3.6,0.9c1,0.6,1.7,1.3,2.2,2.3c0.5,0.9,0.7,1.9,0.7,2.8c0,0.9-0.3,1.5-0.8,1.7c-0.5,0.3-1.2,0.4-2.2,0.4h-3.7
				V1175.3L633.6,1175.3z M633.6,1183.6v-2.3c0.1,0,0.2,0,0.3,0c0.4,0,0.8,0,1.2-0.1c0.4-0.1,0.7-0.3,1-0.5c0.3-0.2,0.6-0.4,0.9-0.7
				c0.3-0.2,0.6-0.6,1.1-1c0.2-0.2,0.4-0.2,0.8-0.2c0.4,0,0.7,0.1,0.9,0.3c0.2,0.2,0.3,0.5,0.3,0.8c0,0.3-0.1,0.7-0.4,1.1
				c-0.3,0.4-0.6,0.8-1.1,1.2c-0.5,0.4-1.1,0.7-1.9,1c-0.8,0.3-1.6,0.4-2.6,0.4C633.8,1183.6,633.7,1183.6,633.6,1183.6z
				 M630.4,1175.3h3.2v2h-3.2c0,0.8,0.2,1.5,0.5,2.1c0.3,0.6,0.7,1.1,1.3,1.4c0.5,0.3,0.9,0.4,1.5,0.5v2.3c-2.1-0.1-3.7-0.7-4.9-1.9
				c-1.3-1.3-1.9-3.1-1.9-5.3c0-1,0.2-2,0.5-2.9c0.3-0.9,0.8-1.7,1.4-2.3c0.6-0.6,1.3-1.1,2.2-1.5c0.8-0.3,1.8-0.5,2.8-0.5v2.5h0
				c-0.9,0-1.6,0.3-2.2,0.9C630.8,1173.2,630.5,1174.1,630.4,1175.3z"/>
			<path fill-rule="evenodd" fill="#FFFFFF" d="M653,1176.4c0-0.9-0.1-1.7-0.4-2.4c-0.3-0.7-0.7-1.2-1.2-1.5
				c-0.5-0.4-1.1-0.5-1.7-0.5l-0.1,0v-2.5c0.3-0.1,0.6-0.1,1-0.1c1.1,0,2.1,0.3,3,0.8c0.9,0.6,1.6,1.4,2.2,2.5
				c0.5,1.1,0.8,2.4,0.8,3.8c0,1.1-0.2,2.1-0.5,3c-0.3,0.9-0.7,1.7-1.3,2.3c-0.5,0.6-1.2,1.1-1.9,1.4c-0.7,0.3-1.5,0.5-2.4,0.5
				c-0.3,0-0.7,0-1-0.1v-2.7h0.1c0.6,0,1.1-0.2,1.6-0.5c0.5-0.3,0.9-0.8,1.2-1.5C652.9,1178.1,653,1177.3,653,1176.4z M649.6,1171.9
				c-0.9,0-1.7,0.4-2.4,1.2c-0.7,0.8-1,1.9-1,3.4c0,1.4,0.3,2.5,1,3.3c0.6,0.8,1.4,1.2,2.4,1.2v2.7c-0.6-0.1-1.1-0.3-1.6-0.5
				c-0.7-0.4-1.3-1-2-1.8v5.3c0,1.6-0.6,2.3-1.7,2.3c-0.7,0-1.1-0.2-1.3-0.6c-0.2-0.4-0.3-1-0.3-1.8v-15.3c0-0.7,0.1-1.2,0.4-1.5
				c0.3-0.3,0.7-0.5,1.2-0.5c0.5,0,0.9,0.2,1.2,0.5c0.3,0.3,0.5,0.8,0.5,1.5v0.4c0.7-0.8,1.4-1.4,2.1-1.8c0.5-0.2,0.9-0.4,1.5-0.5
				V1171.9z"/>
			<path fill-rule="evenodd" fill="#FFFFFF" d="M663,1171.2v10.2c0,0.7-0.2,1.2-0.5,1.6c-0.3,0.4-0.8,0.5-1.3,0.5
				c-0.5,0-0.9-0.2-1.3-0.6c-0.3-0.4-0.5-0.9-0.5-1.6v-10.1c0-0.7,0.2-1.2,0.5-1.6c0.3-0.4,0.7-0.5,1.3-0.5c0.5,0,0.9,0.2,1.3,0.5
				C662.8,1170.1,663,1170.6,663,1171.2L663,1171.2z M661.2,1167.6c-0.5,0-0.9-0.2-1.3-0.5c-0.3-0.3-0.5-0.7-0.5-1.3
				c0-0.5,0.2-0.9,0.5-1.2c0.4-0.3,0.8-0.5,1.3-0.5c0.5,0,0.9,0.1,1.2,0.4c0.4,0.3,0.5,0.7,0.5,1.3c0,0.5-0.2,1-0.5,1.3
				C662.1,1167.4,661.7,1167.6,661.2,1167.6z"/>
			<path fill-rule="evenodd" fill="#FFFFFF" d="M675.4,1182l-3.1-5.1l-1.9,1.8v2.8c0,0.7-0.2,1.2-0.5,1.6c-0.4,0.4-0.8,0.5-1.2,0.5
				c-0.5,0-1-0.2-1.3-0.5c-0.3-0.4-0.5-0.9-0.5-1.6v-15.1c0-0.8,0.1-1.4,0.4-1.8c0.3-0.4,0.7-0.6,1.3-0.6c0.5,0,1,0.2,1.3,0.6
				c0.3,0.4,0.5,0.9,0.5,1.6v8.6l4-4.2c0.5-0.5,0.9-0.9,1.1-1.1c0.3-0.2,0.6-0.3,0.9-0.3c0.4,0,0.8,0.1,1.1,0.4
				c0.3,0.3,0.4,0.6,0.4,1.1c0,0.5-0.5,1.2-1.4,2.1l-1.9,1.7l3.6,5.7c0.3,0.4,0.5,0.7,0.6,1c0.1,0.2,0.2,0.4,0.2,0.6
				c0,0.6-0.1,1-0.5,1.3c-0.3,0.3-0.7,0.5-1.2,0.5c-0.4,0-0.8-0.1-1-0.3C676.1,1183,675.8,1182.6,675.4,1182z"/>
			<path fill-rule="evenodd" fill="#FFFFFF" d="M684.2,1183.6c-0.5,0-1-0.2-1.4-0.5c-0.4-0.3-0.6-0.8-0.6-1.5c0-0.5,0.2-1,0.6-1.4
				c0.4-0.4,0.8-0.6,1.4-0.6c0.5,0,1,0.2,1.4,0.6c0.4,0.4,0.6,0.8,0.6,1.4c0,0.6-0.2,1.1-0.6,1.5
				C685.2,1183.4,684.7,1183.6,684.2,1183.6z"/>
			<path fill-rule="evenodd" fill="#FFFFFF" d="M702.8,1179.2c0,0.4-0.1,0.9-0.4,1.4c-0.3,0.5-0.7,1-1.2,1.4c-0.5,0.5-1.2,0.8-2,1.1
				c-0.8,0.3-1.8,0.4-2.8,0.4c-2.2,0-3.9-0.6-5.1-1.9c-1.2-1.3-1.8-3-1.8-5.1c0-1.5,0.3-2.7,0.8-3.9c0.6-1.1,1.4-2,2.4-2.6
				c1.1-0.6,2.3-0.9,3.8-0.9c0.9,0,1.8,0.1,2.5,0.4c0.8,0.3,1.4,0.6,1.9,1c0.5,0.4,0.9,0.9,1.2,1.3c0.3,0.5,0.4,0.9,0.4,1.3
				c0,0.4-0.2,0.8-0.5,1.1c-0.3,0.3-0.7,0.4-1.1,0.4c-0.3,0-0.5-0.1-0.7-0.2c-0.2-0.1-0.4-0.4-0.7-0.7c-0.4-0.7-0.9-1.2-1.4-1.5
				c-0.5-0.3-1.1-0.5-1.8-0.5c-1,0-1.9,0.4-2.5,1.2c-0.6,0.8-1,1.9-1,3.3c0,0.7,0.1,1.3,0.3,1.8c0.2,0.6,0.4,1,0.7,1.4
				c0.3,0.4,0.7,0.7,1.1,0.9c0.4,0.2,0.9,0.3,1.5,0.3c0.7,0,1.3-0.2,1.8-0.5c0.5-0.3,1-0.8,1.3-1.5c0.2-0.4,0.5-0.7,0.7-0.9
				c0.2-0.2,0.6-0.3,0.9-0.3c0.4,0,0.8,0.2,1.1,0.5C702.7,1178.5,702.8,1178.9,702.8,1179.2z"/>
			<path fill-rule="evenodd" fill="#FFFFFF" d="M715.6,1176.4c0-1.4-0.3-2.6-1-3.4c-0.6-0.8-1.5-1.2-2.5-1.2v-2.6
				c1.1,0,2,0.2,2.9,0.5c0.9,0.3,1.6,0.8,2.2,1.5c0.6,0.6,1.1,1.4,1.4,2.3c0.3,0.9,0.5,1.9,0.5,2.9c0,1-0.2,2-0.5,2.9
				c-0.3,0.9-0.8,1.7-1.4,2.3c-0.6,0.6-1.4,1.1-2.2,1.5c-0.9,0.3-1.8,0.5-2.9,0.5v-2.6c1.1,0,1.9-0.4,2.5-1.2
				C715.3,1179,715.6,1177.8,715.6,1176.4z M712.1,1171.8L712.1,1171.8c-0.7,0-1.3,0.2-1.9,0.5c-0.5,0.4-0.9,0.9-1.2,1.6
				c-0.3,0.7-0.4,1.5-0.4,2.5c0,0.9,0.1,1.7,0.4,2.4c0.3,0.7,0.7,1.2,1.2,1.6c0.5,0.4,1.1,0.5,1.8,0.5h0v2.6h0c-1.1,0-2-0.2-2.9-0.5
				c-0.8-0.3-1.6-0.8-2.2-1.5c-0.6-0.6-1.1-1.4-1.4-2.3c-0.3-0.9-0.5-1.8-0.5-2.9c0-1.1,0.2-2.1,0.5-2.9c0.3-0.9,0.8-1.7,1.4-2.3
				c0.6-0.6,1.4-1.1,2.2-1.5c0.9-0.3,1.8-0.5,2.9-0.5h0V1171.8z"/>
			<path fill-rule="evenodd" fill="#FFFFFF" d="M733.7,1176.7v4.7c0,0.7-0.2,1.3-0.5,1.7c-0.3,0.4-0.8,0.6-1.3,0.6
				c-0.5,0-1-0.2-1.3-0.6c-0.3-0.4-0.5-0.9-0.5-1.7v-5.6c0-0.9,0-1.6-0.1-2.1c-0.1-0.5-0.2-0.9-0.5-1.2c-0.3-0.3-0.7-0.5-1.3-0.5
				c-1.2,0-1.9,0.4-2.3,1.2c-0.4,0.8-0.6,1.9-0.6,3.4v4.8c0,0.7-0.2,1.3-0.5,1.7c-0.3,0.4-0.8,0.6-1.3,0.6c-0.5,0-1-0.2-1.3-0.6
				c-0.3-0.4-0.5-0.9-0.5-1.7v-10.1c0-0.7,0.2-1.2,0.5-1.5c0.3-0.3,0.7-0.5,1.2-0.5c0.5,0,0.9,0.2,1.2,0.5c0.3,0.3,0.5,0.8,0.5,1.3
				v0.3c0.6-0.7,1.3-1.3,2-1.6c0.7-0.3,1.5-0.5,2.3-0.5c0.9,0,1.7,0.2,2.3,0.5c0.6,0.4,1.2,0.9,1.6,1.6c0.6-0.7,1.2-1.3,1.9-1.6
				c0.7-0.3,1.4-0.5,2.3-0.5c1,0,1.8,0.2,2.5,0.6c0.7,0.4,1.2,0.9,1.6,1.6c0.3,0.6,0.5,1.7,0.5,3v6.9c0,0.7-0.2,1.3-0.5,1.7
				c-0.3,0.4-0.8,0.6-1.3,0.6c-0.5,0-1-0.2-1.3-0.6c-0.3-0.4-0.5-0.9-0.5-1.7v-5.9c0-0.8,0-1.4-0.1-1.8c-0.1-0.5-0.2-0.8-0.5-1.1
				c-0.3-0.3-0.7-0.5-1.3-0.5c-0.5,0-0.9,0.1-1.3,0.4c-0.4,0.3-0.7,0.6-1,1.1C733.9,1174.1,733.7,1175.2,733.7,1176.7z"/>
			<path fill-rule="evenodd" fill="#FFFFFF" d="M563.6,1160.1c-0.1-0.2-0.1-0.5-0.2-0.7c1.2-0.1,2-1.5,1.4-2.6c-0.3-0.6-0.9-1-1.6-1
				h-0.1c-0.6,0-1.1,0.2-1.4,0.7c-0.8,1-0.2,2.5,1,2.8c0.1,0.2,0.1,0.5,0.2,0.7c-1.8,0.1-3.6,0.5-5.1,1.5c0.2,0.4,0.3,0.9,0.5,1.3
				c3-1.3,6.4-1,9.6-0.7c0.1-0.4,0.2-0.8,0.3-1.3C566.8,1160.3,565.2,1160.1,563.6,1160.1z"/>
			<path fill-rule="evenodd" fill="#FFFFFF" d="M581.6,1165c-0.5,0.2-0.6,0.8-0.5,1.3c-0.5,0.5-0.3,1.3-0.3,1.9
				c-0.1,0.4-0.6,0.4-0.9,0.5c-0.4-0.6-0.9-1.2-1.4-1.8l0,0c-0.6-0.6-1.3-1.1-2-1.5c-0.6,0.6-1.1,1.2-1.7,1.8c1.1,1.2,2,2.4,2.9,3.7
				c0.6,1,1.1,2.1,1.5,3.2c0.9-0.5,1.8-0.9,2.7-1.4c-0.5-1.1-1-2.2-1.6-3.2c0.4-0.2,0.9-0.4,1-0.9c0-0.6-0.1-1.2,0.3-1.7
				c0.7,0.5,1.7-0.1,1.8-0.9C583.4,1165.1,582.3,1164.5,581.6,1165z"/>
			<path fill-rule="evenodd" fill="#FFFFFF" d="M574.5,1172.2c-0.2,1.5-1.6,2.7-3.1,2.6v5.8c2.7-0.7,5.4-1.8,7.8-3.2
				c0,0-0.5-2.8-2.5-5.9c-1.2-1.9-2.4-3.9-4.2-5.4c-0.4-0.3-0.7-0.6-1.1-0.9v3.4c0.4,0,0.8,0.1,1.1,0.2
				C573.9,1169.3,574.8,1170.8,574.5,1172.2z M571.5,1174.8L571.5,1174.8c-0.9,0.1-1.7-0.3-2.3-0.9c-0.4-0.5-0.8-1.1-0.8-1.8
				c-0.2-1.5,0.8-3,2.3-3.4c0.3-0.1,0.5-0.1,0.8-0.1v-3.4c-1.8-1.2-3.9-2-6.1-2c-2.7,0-5.4,0.3-8,1.1v3.2c0.5,0,1,0.1,1.4,0.2
				c0.5,0.1,1,0.4,1.4,0.7c0.9,0.6,1.6,1.6,1.9,2.7c0.4,1.4,0.2,3-0.7,4.2c-0.6,0.9-1.4,1.5-2.4,1.9c-0.6,0.2-1.1,0.3-1.7,0.3v4.3
				l0.1,0c3.2,0.1,6.4,0.2,9.5-0.3c1.5-0.2,3-0.5,4.5-0.9V1174.8z M557.3,1164.3v3.2c-0.8,0-1.6,0.2-2.3,0.6
				c-1.5,0.8-2.6,2.4-2.6,4.1c-0.1,1.4,0.4,2.7,1.4,3.7c0.9,1,2.3,1.5,3.6,1.5v4.3c-3.2-0.2-6.3-0.8-9.3-1.6
				c-0.6-2.8-0.6-5.9,0.7-8.6c1.3-3,3.8-5.3,6.8-6.6C556,1164.8,556.7,1164.6,557.3,1164.3z"/>
			<path fill-rule="evenodd" fill="#FFFFFF" d="M548.7,1167.1c-1.3,0.8-2.3,1.8-3.2,3c-0.3-0.5-0.3-1-0.7-1.5
				c-0.2-0.3-0.5-0.1-0.8-0.2c-0.3,0-0.7-0.1-1-0.2c0.4-0.5,0.3-1.3-0.3-1.7c-0.6-0.4-1.5-0.1-1.7,0.7c-0.3,0.8,0.6,1.6,1.4,1.4
				c0.4,0.6,1.2,0.5,1.8,0.5c0.3,0.5,0.5,1,0.9,1.5c-0.7,1.3-1.1,2.8-1.1,4.3c0.9,0.4,1.7,0.7,2.6,1.1c0-1,0.2-1.9,0.3-2.8
				c0.3-2,1.5-3.8,2.9-5.3C549.4,1167.8,549,1167.5,548.7,1167.1z"/>
			<path fill-rule="evenodd" fill="#FFFFFF" d="M569,1182.5c-3.2,0.7-6.5,0.9-9.8,0.8c-2.2-0.1-4.4-0.3-6.6-0.8
				c-1.5-0.3-3-0.8-4.5-1.2c0.2,1.9,1,3.8,2.1,5.4c1.3,1.8,3.1,3.5,5.3,4.2c1.6,0.4,3.5,1,6.6,1h0.3l0.3,0c2.9-0.1,5.7-0.4,8.3-1.5
				c1.6-0.7,3.2-1.7,4.5-2.9c1.1-1.1,2-2.4,2.7-3.9c0.6-1.4,1.1-3.8,1.1-5.1C576.1,1180.3,572.6,1181.9,569,1182.5z"/>
		</g>
	</g>
	<g>
		<g>
			<path fill-rule="evenodd" fill="#FFFFFF" d="M844.4,483.8H357.8c-6.2,0-11.4-5.1-11.4-11.4V156.8c0-6.2,5.1-11.4,11.4-11.4h486.7
				c6.2,0,11.4,5.1,11.4,11.4v315.7C855.8,478.7,850.7,483.8,844.4,483.8z"/>
			<path fill-rule="evenodd" fill="#B3B3B3" d="M822.3,483.8h-28.2v-16.1c0-1.5,1.2-2.7,2.7-2.7h22.9c1.5,0,2.7,1.2,2.7,2.7V483.8z"
				/>
			<path fill-rule="evenodd" fill="#B3B3B3" d="M408.1,483.8h-28.2v-16.1c0-1.5,1.2-2.7,2.7-2.7h22.9c1.5,0,2.7,1.2,2.7,2.7V483.8z"
				/>
			<path fill-rule="evenodd" fill="#CCCCCC" d="M891.5,581.2H311.7c-13.9,0-18.2-6.5-12.5-15.5l48.5-76.1h508.1l43.2,68.3
				C908.7,573.2,906.8,581.2,891.5,581.2z"/>
			<polygon fill-rule="evenodd" points="328.9,558 364.2,499.8 838.9,499.8 874.6,558 			"/>
			<path fill-rule="evenodd" fill="#FFFFFF" d="M894.7,579.1H307.1c-1.2,0-2.3-1-2.3-2.3v0c0-1.2,1-2.3,2.3-2.3h587.6
				c1.2,0,2.3,1,2.3,2.3v0C896.9,578,895.9,579.1,894.7,579.1z"/>
			<path fill-rule="evenodd" fill="#FFFFFF" d="M818.3,498.4h-20.2c-1.3,0-2.3-1.1-2.3-2.3v-23.9c0-1.3,1.1-2.3,2.3-2.3h20.2
				c1.3,0,2.3,1.1,2.3,2.3v23.9C820.7,497.4,819.6,498.4,818.3,498.4z"/>
			<path fill-rule="evenodd" fill="#FFFFFF" d="M404.1,498.4h-20.2c-1.3,0-2.3-1.1-2.3-2.3v-23.9c0-1.3,1.1-2.3,2.3-2.3h20.2
				c1.3,0,2.3,1.1,2.3,2.3v23.9C406.4,497.4,405.4,498.4,404.1,498.4z"/>
			<path fill-rule="evenodd" fill="#CCCCCC" d="M396,438.7h-15.7c-1.8,0-3.2-1.5-3.2-3.2v-11.7c0-1.8,1.5-3.2,3.2-3.2H396
				c1.8,0,3.2,1.5,3.2,3.2v11.7C399.2,437.3,397.8,438.7,396,438.7z"/>
			<path fill-rule="evenodd" fill="#CCCCCC" d="M395.3,416.4H381c-2.2,0-4-1.8-4-4v-15.8c0-2.2,1.8-4,4-4h14.3c2.2,0,4,1.8,4,4v15.8
				C399.2,414.6,397.4,416.4,395.3,416.4z"/>
			<path fill-rule="evenodd" fill="#CCCCCC" d="M395.3,388.6H381c-2.2,0-4-1.8-4-4v-15.8c0-2.2,1.8-4,4-4h14.3c2.2,0,4,1.8,4,4v15.8
				C399.2,386.8,397.4,388.6,395.3,388.6z"/>
			<path fill-rule="evenodd" fill="#CCCCCC" d="M395.3,360.7H381c-2.2,0-4-1.8-4-4v-15.8c0-2.2,1.8-4,4-4h14.3c2.2,0,4,1.8,4,4v15.8
				C399.2,358.9,397.4,360.7,395.3,360.7z"/>
			<path fill-rule="evenodd" fill="#CCCCCC" d="M395.3,332.8H381c-2.2,0-4-1.8-4-4V313c0-2.2,1.8-4,4-4h14.3c2.2,0,4,1.8,4,4v15.8
				C399.2,331,397.4,332.8,395.3,332.8z"/>
			<path fill-rule="evenodd" fill="#CCCCCC" d="M395.3,305H381c-2.2,0-4-1.8-4-4v-15.8c0-2.2,1.8-4,4-4h14.3c2.2,0,4,1.8,4,4V301
				C399.2,303.2,397.4,305,395.3,305z"/>
			<path fill-rule="evenodd" fill="#CCCCCC" d="M423.7,438.7H408c-1.8,0-3.2-1.5-3.2-3.2v-11.7c0-1.8,1.5-3.2,3.2-3.2h15.7
				c1.8,0,3.2,1.5,3.2,3.2v11.7C427,437.3,425.5,438.7,423.7,438.7z"/>
			<path fill-rule="evenodd" fill="#CCCCCC" d="M448.4,416.4H409c-2.3,0-4.2-1.9-4.2-4.2v-15.3c0-2.3,1.9-4.2,4.2-4.2h39.4
				c2.3,0,4.2,1.9,4.2,4.2v15.3C452.6,414.5,450.7,416.4,448.4,416.4z"/>
			<path fill-rule="evenodd" fill="#CCCCCC" d="M430.3,388.6H409c-2.3,0-4.2-1.9-4.2-4.2v-15.3c0-2.3,1.9-4.2,4.2-4.2h21.3
				c2.3,0,4.2,1.9,4.2,4.2v15.3C434.6,386.7,432.7,388.6,430.3,388.6z"/>
			<path fill-rule="evenodd" fill="#CCCCCC" d="M451.5,360.7H409c-2.3,0-4.2-1.9-4.2-4.2v-15.3c0-2.3,1.9-4.2,4.2-4.2h42.5
				c2.3,0,4.2,1.9,4.2,4.2v15.3C455.8,358.8,453.9,360.7,451.5,360.7z"/>
			<path fill-rule="evenodd" fill="#CCCCCC" d="M423,332.8h-14.3c-2.2,0-4-1.8-4-4V313c0-2.2,1.8-4,4-4H423c2.2,0,4,1.8,4,4v15.8
				C427,331,425.2,332.8,423,332.8z"/>
			<path fill-rule="evenodd" fill="#CCCCCC" d="M423,305h-14.3c-2.2,0-4-1.8-4-4v-15.8c0-2.2,1.8-4,4-4H423c2.2,0,4,1.8,4,4V301
				C427,303.2,425.2,305,423,305z"/>
			<path fill-rule="evenodd" fill="#CCCCCC" d="M449.4,438.7h-13.6c-1.8,0-3.2-1.5-3.2-3.2v-11.7c0-1.8,1.5-3.2,3.2-3.2h13.6
				c1.8,0,3.2,1.5,3.2,3.2v11.7C452.6,437.3,451.2,438.7,449.4,438.7z"/>
			<path fill-rule="evenodd" fill="#CCCCCC" d="M475.5,438.7h-13.6c-1.8,0-3.2-1.5-3.2-3.2v-11.7c0-1.8,1.5-3.2,3.2-3.2h13.6
				c1.8,0,3.2,1.5,3.2,3.2v11.7C478.7,437.3,477.2,438.7,475.5,438.7z"/>
			<path fill-rule="evenodd" fill="#CCCCCC" d="M501.5,438.7h-13.6c-1.8,0-3.2-1.5-3.2-3.2v-11.7c0-1.8,1.5-3.2,3.2-3.2h13.6
				c1.8,0,3.2,1.5,3.2,3.2v11.7C504.8,437.3,503.3,438.7,501.5,438.7z"/>
			<path fill-rule="evenodd" fill="#CCCCCC" d="M527.6,438.7H514c-1.8,0-3.2-1.5-3.2-3.2v-11.7c0-1.8,1.5-3.2,3.2-3.2h13.6
				c1.8,0,3.2,1.5,3.2,3.2v11.7C530.8,437.3,529.4,438.7,527.6,438.7z"/>
			<path fill-rule="evenodd" fill="#CCCCCC" d="M553.6,438.7h-13.6c-1.8,0-3.2-1.5-3.2-3.2v-11.7c0-1.8,1.5-3.2,3.2-3.2h13.6
				c1.8,0,3.2,1.5,3.2,3.2v11.7C556.9,437.3,555.4,438.7,553.6,438.7z"/>
			<path fill-rule="evenodd" fill="#CCCCCC" d="M579.7,438.7h-13.6c-1.8,0-3.2-1.5-3.2-3.2v-11.7c0-1.8,1.5-3.2,3.2-3.2h13.6
				c1.8,0,3.2,1.5,3.2,3.2v11.7C583,437.3,581.5,438.7,579.7,438.7z"/>
			<path fill-rule="evenodd" fill="#CCCCCC" d="M605.8,438.7h-13.6c-1.8,0-3.2-1.5-3.2-3.2v-11.7c0-1.8,1.5-3.2,3.2-3.2h13.6
				c1.8,0,3.2,1.5,3.2,3.2v11.7C609,437.3,607.6,438.7,605.8,438.7z"/>
			<path fill-rule="evenodd" fill="#CCCCCC" d="M631.8,438.7h-13.6c-1.8,0-3.2-1.5-3.2-3.2v-11.7c0-1.8,1.5-3.2,3.2-3.2h13.6
				c1.8,0,3.2,1.5,3.2,3.2v11.7C635.1,437.3,633.6,438.7,631.8,438.7z"/>
			<path fill-rule="evenodd" fill="#CCCCCC" d="M657.9,438.7h-13.6c-1.8,0-3.2-1.5-3.2-3.2v-11.7c0-1.8,1.5-3.2,3.2-3.2h13.6
				c1.8,0,3.2,1.5,3.2,3.2v11.7C661.2,437.3,659.7,438.7,657.9,438.7z"/>
			<path fill-rule="evenodd" fill="#CCCCCC" d="M684,438.7h-13.6c-1.8,0-3.2-1.5-3.2-3.2v-11.7c0-1.8,1.5-3.2,3.2-3.2H684
				c1.8,0,3.2,1.5,3.2,3.2v11.7C687.2,437.3,685.8,438.7,684,438.7z"/>
			<path fill-rule="evenodd" fill="#CCCCCC" d="M710,438.7h-13.6c-1.8,0-3.2-1.5-3.2-3.2v-11.7c0-1.8,1.5-3.2,3.2-3.2H710
				c1.8,0,3.2,1.5,3.2,3.2v11.7C713.3,437.3,711.8,438.7,710,438.7z"/>
			<path fill-rule="evenodd" fill="#CCCCCC" d="M736.1,438.7h-13.6c-1.8,0-3.2-1.5-3.2-3.2v-11.7c0-1.8,1.5-3.2,3.2-3.2h13.6
				c1.8,0,3.2,1.5,3.2,3.2v11.7C739.4,437.3,737.9,438.7,736.1,438.7z"/>
			<path fill-rule="evenodd" fill="#CCCCCC" d="M762.2,438.7h-13.6c-1.8,0-3.2-1.5-3.2-3.2v-11.7c0-1.8,1.5-3.2,3.2-3.2h13.6
				c1.8,0,3.2,1.5,3.2,3.2v11.7C765.4,437.3,764,438.7,762.2,438.7z"/>
			<path fill-rule="evenodd" fill="#CCCCCC" d="M788.2,438.7h-13.6c-1.8,0-3.2-1.5-3.2-3.2v-11.7c0-1.8,1.5-3.2,3.2-3.2h13.6
				c1.8,0,3.2,1.5,3.2,3.2v11.7C791.5,437.3,790,438.7,788.2,438.7z"/>
			<path fill-rule="evenodd" fill="#CCCCCC" d="M817.5,438.7h-15.7c-1.8,0-3.2-1.5-3.2-3.2v-11.7c0-1.8,1.5-3.2,3.2-3.2h15.7
				c1.8,0,3.2,1.5,3.2,3.2v11.7C820.8,437.3,819.3,438.7,817.5,438.7z"/>
			<path fill-rule="evenodd" fill="#CCCCCC" d="M476.5,416.4h-14c-2.1,0-3.9-1.8-3.9-3.9v-16c0-2.1,1.8-3.9,3.9-3.9h14
				c2.1,0,3.9,1.8,3.9,3.9v16C480.4,414.7,478.7,416.4,476.5,416.4z"/>
			<path fill-rule="evenodd" fill="#CCCCCC" d="M504.8,416.4h-14c-2.1,0-3.9-1.8-3.9-3.9v-16c0-2.1,1.8-3.9,3.9-3.9h14
				c2.1,0,3.9,1.8,3.9,3.9v16C508.7,414.7,506.9,416.4,504.8,416.4z"/>
			<path fill-rule="evenodd" fill="#CCCCCC" d="M533.1,416.4h-14c-2.1,0-3.9-1.8-3.9-3.9v-16c0-2.1,1.8-3.9,3.9-3.9h14
				c2.1,0,3.9,1.8,3.9,3.9v16C537,414.7,535.2,416.4,533.1,416.4z"/>
			<path fill-rule="evenodd" fill="#CCCCCC" d="M561.4,416.4h-14c-2.1,0-3.9-1.8-3.9-3.9v-16c0-2.1,1.8-3.9,3.9-3.9h14
				c2.1,0,3.9,1.8,3.9,3.9v16C565.2,414.7,563.5,416.4,561.4,416.4z"/>
			<path fill-rule="evenodd" fill="#CCCCCC" d="M589.6,416.4h-14c-2.1,0-3.9-1.8-3.9-3.9v-16c0-2.1,1.8-3.9,3.9-3.9h14
				c2.1,0,3.9,1.8,3.9,3.9v16C593.5,414.7,591.8,416.4,589.6,416.4z"/>
			<path fill-rule="evenodd" fill="#CCCCCC" d="M617.9,416.4h-14c-2.1,0-3.9-1.8-3.9-3.9v-16c0-2.1,1.8-3.9,3.9-3.9h14
				c2.1,0,3.9,1.8,3.9,3.9v16C621.8,414.7,620.1,416.4,617.9,416.4z"/>
			<path fill-rule="evenodd" fill="#CCCCCC" d="M646.2,416.4h-14c-2.1,0-3.9-1.8-3.9-3.9v-16c0-2.1,1.8-3.9,3.9-3.9h14
				c2.1,0,3.9,1.8,3.9,3.9v16C650.1,414.7,648.3,416.4,646.2,416.4z"/>
			<path fill-rule="evenodd" fill="#CCCCCC" d="M674.5,416.4h-14c-2.1,0-3.9-1.8-3.9-3.9v-16c0-2.1,1.8-3.9,3.9-3.9h14
				c2.1,0,3.9,1.8,3.9,3.9v16C678.4,414.7,676.6,416.4,674.5,416.4z"/>
			<path fill-rule="evenodd" fill="#CCCCCC" d="M702.7,416.4h-14c-2.1,0-3.9-1.8-3.9-3.9v-16c0-2.1,1.8-3.9,3.9-3.9h14
				c2.1,0,3.9,1.8,3.9,3.9v16C706.6,414.7,704.9,416.4,702.7,416.4z"/>
			<path fill-rule="evenodd" fill="#CCCCCC" d="M731,416.4h-14c-2.1,0-3.9-1.8-3.9-3.9v-16c0-2.1,1.8-3.9,3.9-3.9h14
				c2.1,0,3.9,1.8,3.9,3.9v16C734.9,414.7,733.2,416.4,731,416.4z"/>
			<path fill-rule="evenodd" fill="#CCCCCC" d="M759.3,416.4h-14c-2.1,0-3.9-1.8-3.9-3.9v-16c0-2.1,1.8-3.9,3.9-3.9h14
				c2.1,0,3.9,1.8,3.9,3.9v16C763.2,414.7,761.4,416.4,759.3,416.4z"/>
			<path fill-rule="evenodd" fill="#CCCCCC" d="M787.6,416.4h-14c-2.1,0-3.9-1.8-3.9-3.9v-16c0-2.1,1.8-3.9,3.9-3.9h14
				c2.1,0,3.9,1.8,3.9,3.9v16C791.5,414.7,789.7,416.4,787.6,416.4z"/>
			<path fill-rule="evenodd" fill="#CCCCCC" d="M816.8,416.4h-14.3c-2.2,0-4-1.8-4-4v-15.8c0-2.2,1.8-4,4-4h14.3c2.2,0,4,1.8,4,4
				v15.8C820.8,414.6,819,416.4,816.8,416.4z"/>
			<path fill-rule="evenodd" fill="#CCCCCC" d="M816.5,388.6h-29.4c-2.3,0-4.2-1.9-4.2-4.2v-15.3c0-2.3,1.9-4.2,4.2-4.2h29.4
				c2.3,0,4.2,1.9,4.2,4.2v15.3C820.8,386.7,818.9,388.6,816.5,388.6z"/>
			<path fill-rule="evenodd" fill="#CCCCCC" d="M816.5,360.7h-34.9c-2.3,0-4.2-1.9-4.2-4.2v-15.3c0-2.3,1.9-4.2,4.2-4.2h34.9
				c2.3,0,4.2,1.9,4.2,4.2v15.3C820.8,358.8,818.9,360.7,816.5,360.7z"/>
			<path fill-rule="evenodd" fill="#CCCCCC" d="M816.5,332.8h-50.1c-2.3,0-4.2-1.9-4.2-4.2v-15.3c0-2.3,1.9-4.2,4.2-4.2h50.1
				c2.3,0,4.2,1.9,4.2,4.2v15.3C820.8,330.9,818.9,332.8,816.5,332.8z"/>
			<path fill-rule="evenodd" fill="#CCCCCC" d="M816.5,305h-20.8c-2.3,0-4.2-1.9-4.2-4.2v-15.3c0-2.3,1.9-4.2,4.2-4.2h20.8
				c2.3,0,4.2,1.9,4.2,4.2v15.3C820.8,303.1,818.9,305,816.5,305z"/>
			<path fill-rule="evenodd" fill="#CCCCCC" d="M775.2,388.6h-15c-2.3,0-4.2-1.9-4.2-4.2V369c0-2.3,1.9-4.2,4.2-4.2h15
				c2.3,0,4.2,1.9,4.2,4.2v15.4C779.4,386.7,777.5,388.6,775.2,388.6z"/>
			<path fill-rule="evenodd" fill="#CCCCCC" d="M746.4,388.6h-15c-2.3,0-4.2-1.9-4.2-4.2V369c0-2.3,1.9-4.2,4.2-4.2h15
				c2.3,0,4.2,1.9,4.2,4.2v15.4C750.6,386.7,748.7,388.6,746.4,388.6z"/>
			<path fill-rule="evenodd" fill="#CCCCCC" d="M717.6,388.6h-15c-2.3,0-4.2-1.9-4.2-4.2V369c0-2.3,1.9-4.2,4.2-4.2h15
				c2.3,0,4.2,1.9,4.2,4.2v15.4C721.7,386.7,719.9,388.6,717.6,388.6z"/>
			<path fill-rule="evenodd" fill="#CCCCCC" d="M688.8,388.6h-15c-2.3,0-4.2-1.9-4.2-4.2V369c0-2.3,1.9-4.2,4.2-4.2h15
				c2.3,0,4.2,1.9,4.2,4.2v15.4C692.9,386.7,691.1,388.6,688.8,388.6z"/>
			<path fill-rule="evenodd" fill="#CCCCCC" d="M660,388.6h-15c-2.3,0-4.2-1.9-4.2-4.2V369c0-2.3,1.9-4.2,4.2-4.2h15
				c2.3,0,4.2,1.9,4.2,4.2v15.4C664.1,386.7,662.2,388.6,660,388.6z"/>
			<path fill-rule="evenodd" fill="#CCCCCC" d="M631.1,388.6h-15c-2.3,0-4.2-1.9-4.2-4.2V369c0-2.3,1.9-4.2,4.2-4.2h15
				c2.3,0,4.2,1.9,4.2,4.2v15.4C635.3,386.7,633.4,388.6,631.1,388.6z"/>
			<path fill-rule="evenodd" fill="#CCCCCC" d="M602.3,388.6h-15c-2.3,0-4.2-1.9-4.2-4.2V369c0-2.3,1.9-4.2,4.2-4.2h15
				c2.3,0,4.2,1.9,4.2,4.2v15.4C606.5,386.7,604.6,388.6,602.3,388.6z"/>
			<path fill-rule="evenodd" fill="#CCCCCC" d="M573.5,388.6h-15c-2.3,0-4.2-1.9-4.2-4.2V369c0-2.3,1.9-4.2,4.2-4.2h15
				c2.3,0,4.2,1.9,4.2,4.2v15.4C577.7,386.7,575.8,388.6,573.5,388.6z"/>
			<path fill-rule="evenodd" fill="#CCCCCC" d="M544.7,388.6h-15c-2.3,0-4.2-1.9-4.2-4.2V369c0-2.3,1.9-4.2,4.2-4.2h15
				c2.3,0,4.2,1.9,4.2,4.2v15.4C548.9,386.7,547,388.6,544.7,388.6z"/>
			<path fill-rule="evenodd" fill="#CCCCCC" d="M515.9,388.6h-15c-2.3,0-4.2-1.9-4.2-4.2V369c0-2.3,1.9-4.2,4.2-4.2h15
				c2.3,0,4.2,1.9,4.2,4.2v15.4C520.1,386.7,518.2,388.6,515.9,388.6z"/>
			<path fill-rule="evenodd" fill="#CCCCCC" d="M487.1,388.6h-15c-2.3,0-4.2-1.9-4.2-4.2V369c0-2.3,1.9-4.2,4.2-4.2h15
				c2.3,0,4.2,1.9,4.2,4.2v15.4C491.3,386.7,489.4,388.6,487.1,388.6z"/>
			<path fill-rule="evenodd" fill="#CCCCCC" d="M458.3,388.6h-15c-2.3,0-4.2-1.9-4.2-4.2V369c0-2.3,1.9-4.2,4.2-4.2h15
				c2.3,0,4.2,1.9,4.2,4.2v15.4C462.5,386.7,460.6,388.6,458.3,388.6z"/>
			<path fill-rule="evenodd" fill="#CCCCCC" d="M767.2,360.7h-15c-2.3,0-4.2-1.9-4.2-4.2v-15.4c0-2.3,1.9-4.2,4.2-4.2h15
				c2.3,0,4.2,1.9,4.2,4.2v15.4C771.4,358.8,769.5,360.7,767.2,360.7z"/>
			<path fill-rule="evenodd" fill="#CCCCCC" d="M738.4,360.7h-15c-2.3,0-4.2-1.9-4.2-4.2v-15.4c0-2.3,1.9-4.2,4.2-4.2h15
				c2.3,0,4.2,1.9,4.2,4.2v15.4C742.5,358.8,740.7,360.7,738.4,360.7z"/>
			<path fill-rule="evenodd" fill="#CCCCCC" d="M709.6,360.7h-15c-2.3,0-4.2-1.9-4.2-4.2v-15.4c0-2.3,1.9-4.2,4.2-4.2h15
				c2.3,0,4.2,1.9,4.2,4.2v15.4C713.7,358.8,711.9,360.7,709.6,360.7z"/>
			<path fill-rule="evenodd" fill="#CCCCCC" d="M680.7,360.7h-15c-2.3,0-4.2-1.9-4.2-4.2v-15.4c0-2.3,1.9-4.2,4.2-4.2h15
				c2.3,0,4.2,1.9,4.2,4.2v15.4C684.9,358.8,683,360.7,680.7,360.7z"/>
			<path fill-rule="evenodd" fill="#CCCCCC" d="M651.9,360.7h-15c-2.3,0-4.2-1.9-4.2-4.2v-15.4c0-2.3,1.9-4.2,4.2-4.2h15
				c2.3,0,4.2,1.9,4.2,4.2v15.4C656.1,358.8,654.2,360.7,651.9,360.7z"/>
			<path fill-rule="evenodd" fill="#CCCCCC" d="M623.1,360.7h-15c-2.3,0-4.2-1.9-4.2-4.2v-15.4c0-2.3,1.9-4.2,4.2-4.2h15
				c2.3,0,4.2,1.9,4.2,4.2v15.4C627.3,358.8,625.4,360.7,623.1,360.7z"/>
			<path fill-rule="evenodd" fill="#CCCCCC" d="M594.3,360.7h-15c-2.3,0-4.2-1.9-4.2-4.2v-15.4c0-2.3,1.9-4.2,4.2-4.2h15
				c2.3,0,4.2,1.9,4.2,4.2v15.4C598.5,358.8,596.6,360.7,594.3,360.7z"/>
			<path fill-rule="evenodd" fill="#CCCCCC" d="M565.5,360.7h-15c-2.3,0-4.2-1.9-4.2-4.2v-15.4c0-2.3,1.9-4.2,4.2-4.2h15
				c2.3,0,4.2,1.9,4.2,4.2v15.4C569.7,358.8,567.8,360.7,565.5,360.7z"/>
			<path fill-rule="evenodd" fill="#CCCCCC" d="M536.7,360.7h-15c-2.3,0-4.2-1.9-4.2-4.2v-15.4c0-2.3,1.9-4.2,4.2-4.2h15
				c2.3,0,4.2,1.9,4.2,4.2v15.4C540.9,358.8,539,360.7,536.7,360.7z"/>
			<path fill-rule="evenodd" fill="#CCCCCC" d="M507.9,360.7h-15c-2.3,0-4.2-1.9-4.2-4.2v-15.4c0-2.3,1.9-4.2,4.2-4.2h15
				c2.3,0,4.2,1.9,4.2,4.2v15.4C512.1,358.8,510.2,360.7,507.9,360.7z"/>
			<path fill-rule="evenodd" fill="#CCCCCC" d="M479.1,360.7h-15c-2.3,0-4.2-1.9-4.2-4.2v-15.4c0-2.3,1.9-4.2,4.2-4.2h15
				c2.3,0,4.2,1.9,4.2,4.2v15.4C483.2,358.8,481.4,360.7,479.1,360.7z"/>
			<path fill-rule="evenodd" fill="#CCCCCC" d="M752.1,332.8h-15c-2.3,0-4.2-1.9-4.2-4.2v-15.4c0-2.3,1.9-4.2,4.2-4.2h15
				c2.3,0,4.2,1.9,4.2,4.2v15.4C756.3,331,754.4,332.8,752.1,332.8z"/>
			<path fill-rule="evenodd" fill="#CCCCCC" d="M723.3,332.8h-15c-2.3,0-4.2-1.9-4.2-4.2v-15.4c0-2.3,1.9-4.2,4.2-4.2h15
				c2.3,0,4.2,1.9,4.2,4.2v15.4C727.5,331,725.6,332.8,723.3,332.8z"/>
			<path fill-rule="evenodd" fill="#CCCCCC" d="M694.5,332.8h-15c-2.3,0-4.2-1.9-4.2-4.2v-15.4c0-2.3,1.9-4.2,4.2-4.2h15
				c2.3,0,4.2,1.9,4.2,4.2v15.4C698.6,331,696.8,332.8,694.5,332.8z"/>
			<path fill-rule="evenodd" fill="#CCCCCC" d="M665.7,332.8h-15c-2.3,0-4.2-1.9-4.2-4.2v-15.4c0-2.3,1.9-4.2,4.2-4.2h15
				c2.3,0,4.2,1.9,4.2,4.2v15.4C669.8,331,668,332.8,665.7,332.8z"/>
			<path fill-rule="evenodd" fill="#CCCCCC" d="M636.9,332.8h-15c-2.3,0-4.2-1.9-4.2-4.2v-15.4c0-2.3,1.9-4.2,4.2-4.2h15
				c2.3,0,4.2,1.9,4.2,4.2v15.4C641,331,639.1,332.8,636.9,332.8z"/>
			<path fill-rule="evenodd" fill="#CCCCCC" d="M608,332.8h-15c-2.3,0-4.2-1.9-4.2-4.2v-15.4c0-2.3,1.9-4.2,4.2-4.2h15
				c2.3,0,4.2,1.9,4.2,4.2v15.4C612.2,331,610.3,332.8,608,332.8z"/>
			<path fill-rule="evenodd" fill="#CCCCCC" d="M579.2,332.8h-15c-2.3,0-4.2-1.9-4.2-4.2v-15.4c0-2.3,1.9-4.2,4.2-4.2h15
				c2.3,0,4.2,1.9,4.2,4.2v15.4C583.4,331,581.5,332.8,579.2,332.8z"/>
			<path fill-rule="evenodd" fill="#CCCCCC" d="M550.4,332.8h-15c-2.3,0-4.2-1.9-4.2-4.2v-15.4c0-2.3,1.9-4.2,4.2-4.2h15
				c2.3,0,4.2,1.9,4.2,4.2v15.4C554.6,331,552.7,332.8,550.4,332.8z"/>
			<path fill-rule="evenodd" fill="#CCCCCC" d="M521.6,332.8h-15c-2.3,0-4.2-1.9-4.2-4.2v-15.4c0-2.3,1.9-4.2,4.2-4.2h15
				c2.3,0,4.2,1.9,4.2,4.2v15.4C525.8,331,523.9,332.8,521.6,332.8z"/>
			<path fill-rule="evenodd" fill="#CCCCCC" d="M492.8,332.8h-15c-2.3,0-4.2-1.9-4.2-4.2v-15.4c0-2.3,1.9-4.2,4.2-4.2h15
				c2.3,0,4.2,1.9,4.2,4.2v15.4C497,331,495.1,332.8,492.8,332.8z"/>
			<path fill-rule="evenodd" fill="#CCCCCC" d="M463.9,332.8h-27.1c-2.3,0-4.2-1.9-4.2-4.2v-15.3c0-2.3,1.9-4.2,4.2-4.2h27.1
				c2.3,0,4.2,1.9,4.2,4.2v15.3C468.2,330.9,466.3,332.8,463.9,332.8z"/>
			<path fill-rule="evenodd" fill="#CCCCCC" d="M781.4,305h-15c-2.3,0-4.2-1.9-4.2-4.2v-15.4c0-2.3,1.9-4.2,4.2-4.2h15
				c2.3,0,4.2,1.9,4.2,4.2v15.4C785.5,303.1,783.7,305,781.4,305z"/>
			<path fill-rule="evenodd" fill="#CCCCCC" d="M752.6,305h-15c-2.3,0-4.2-1.9-4.2-4.2v-15.4c0-2.3,1.9-4.2,4.2-4.2h15
				c2.3,0,4.2,1.9,4.2,4.2v15.4C756.7,303.1,754.9,305,752.6,305z"/>
			<path fill-rule="evenodd" fill="#CCCCCC" d="M723.8,305h-15c-2.3,0-4.2-1.9-4.2-4.2v-15.4c0-2.3,1.9-4.2,4.2-4.2h15
				c2.3,0,4.2,1.9,4.2,4.2v15.4C727.9,303.1,726,305,723.8,305z"/>
			<path fill-rule="evenodd" fill="#CCCCCC" d="M694.9,305h-15c-2.3,0-4.2-1.9-4.2-4.2v-15.4c0-2.3,1.9-4.2,4.2-4.2h15
				c2.3,0,4.2,1.9,4.2,4.2v15.4C699.1,303.1,697.2,305,694.9,305z"/>
			<path fill-rule="evenodd" fill="#CCCCCC" d="M666.1,305h-15c-2.3,0-4.2-1.9-4.2-4.2v-15.4c0-2.3,1.9-4.2,4.2-4.2h15
				c2.3,0,4.2,1.9,4.2,4.2v15.4C670.3,303.1,668.4,305,666.1,305z"/>
			<path fill-rule="evenodd" fill="#CCCCCC" d="M637.3,305h-15c-2.3,0-4.2-1.9-4.2-4.2v-15.4c0-2.3,1.9-4.2,4.2-4.2h15
				c2.3,0,4.2,1.9,4.2,4.2v15.4C641.5,303.1,639.6,305,637.3,305z"/>
			<path fill-rule="evenodd" fill="#CCCCCC" d="M608.5,305h-15c-2.3,0-4.2-1.9-4.2-4.2v-15.4c0-2.3,1.9-4.2,4.2-4.2h15
				c2.3,0,4.2,1.9,4.2,4.2v15.4C612.7,303.1,610.8,305,608.5,305z"/>
			<path fill-rule="evenodd" fill="#CCCCCC" d="M579.7,305h-15c-2.3,0-4.2-1.9-4.2-4.2v-15.4c0-2.3,1.9-4.2,4.2-4.2h15
				c2.3,0,4.2,1.9,4.2,4.2v15.4C583.9,303.1,582,305,579.7,305z"/>
			<path fill-rule="evenodd" fill="#CCCCCC" d="M550.9,305h-15c-2.3,0-4.2-1.9-4.2-4.2v-15.4c0-2.3,1.9-4.2,4.2-4.2h15
				c2.3,0,4.2,1.9,4.2,4.2v15.4C555.1,303.1,553.2,305,550.9,305z"/>
			<path fill-rule="evenodd" fill="#CCCCCC" d="M522.1,305h-15c-2.3,0-4.2-1.9-4.2-4.2v-15.4c0-2.3,1.9-4.2,4.2-4.2h15
				c2.3,0,4.2,1.9,4.2,4.2v15.4C526.3,303.1,524.4,305,522.1,305z"/>
			<path fill-rule="evenodd" fill="#CCCCCC" d="M493.2,305h-27.1c-2.3,0-4.2-1.9-4.2-4.2v-15.3c0-2.3,1.9-4.2,4.2-4.2h27.1
				c2.3,0,4.2,1.9,4.2,4.2v15.3C497.4,303.1,495.5,305,493.2,305z"/>
			<path fill-rule="evenodd" fill="#CCCCCC" d="M450.8,305h-14.3c-2.2,0-4-1.8-4-4v-15.8c0-2.2,1.8-4,4-4h14.3c2.2,0,4,1.8,4,4V301
				C454.8,303.2,453,305,450.8,305z"/>
			<path fill-rule="evenodd" fill="#CCCCCC" d="M676,261.2H526.2c-2.3,0-4.2-1.9-4.2-4.2v-72c0-2.3,1.9-4.2,4.2-4.2H676
				c2.3,0,4.2,1.9,4.2,4.2v72C680.1,259.4,678.2,261.2,676,261.2z"/>
			<path fill-rule="evenodd" fill="#CCCCCC" d="M679.2,175.6h-74.5c-0.5,0-0.9-0.4-0.9-0.9v-15c0-0.5,0.4-0.9,0.9-0.9h74.5
				c0.5,0,0.9,0.4,0.9,0.9v15C680.1,175.2,679.7,175.6,679.2,175.6z"/>
			<path fill-rule="evenodd" fill="#CCCCCC" d="M597.4,175.6H523c-0.5,0-0.9-0.4-0.9-0.9v-15c0-0.5,0.4-0.9,0.9-0.9h74.5
				c0.5,0,0.9,0.4,0.9,0.9v15C598.3,175.2,597.9,175.6,597.4,175.6z"/>
			<polygon fill-rule="evenodd" fill="#4D4D4D" points="874.6,558 364.2,499.8 328.9,558 			"/>
		</g>
		<g>
			
				<rect x="715.6" y="59.8" transform="matrix(1 2.166355e-03 -2.166355e-03 1 0.2434 -1.6303)" fill-rule="evenodd" fill="#F2CAA9" width="74.2" height="103.6"/>
			<path fill-rule="evenodd" fill="#F2CAA9" d="M710.1,235.4c0.2-8.8,0.2-19.5,0.3-32.1l-25,38.4c-10.6,16.2-25.9,8.5-31.9,1.1
				l49.4-89.8c6.9-12.5,27.4-18.7,47.2-19.2c40.9-1.1,65.8,25.6,66.4,81.7l9,43.1c3.6,18.2-22.1,23.1-25.6,4.7l-3.5-18.1
				c-0.7,0.9-1.9,1.9-3,2.7l3.1,36.2c1.8,18.7-24.2,18.8-25.9,3.1l-3.1-30c-0.8,0.2-2.3,0.2-2.9,0.2l0.8,38.3
				c0.4,17.3-25.7,17.6-26,0.4l-0.9-44.4c-1.2-0.6-2.3-1.3-3.5-2l-7.3,88.7c-1.4,16.9-27.4,15.3-26-2.3L710.1,235.4z"/>
			
				<rect x="707.2" y="90.6" transform="matrix(1 2.173984e-03 -2.173984e-03 1 0.2293 -1.6361)" fill-rule="evenodd" fill="#3F73A1" width="91" height="28.1"/>
			<polygon fill-rule="evenodd" fill="#FFCD61" points="698,0 698.1,90.5 807.3,90.7 807.2,0 			"/>
			
				<rect x="431.6" y="59.2" transform="matrix(-1 -2.145440e-03 2.145440e-03 -1 937.1994 222.8783)" fill-rule="evenodd" fill="#F2CAA9" width="74.2" height="103.6"/>
			<path fill-rule="evenodd" fill="#F2CAA9" d="M510.8,235c-0.1-8.8-0.1-19.5-0.1-32.1l24.1,36.4c10.7,16.1,27.4,9.8,32.4,1.9
				l-48.8-88.6c-6.9-12.5-27.3-18.8-47.1-19.4c-40.9-1.2-65.9,25.3-66.8,81.4l-17.4,85c-3.7,18.2,22,23.2,25.6,4.9l11.8-60.1
				c0.7,0.9,1.9,1.9,2.9,2.7l-8,80.7c-1.9,18.7,24.2,18.9,25.9,3.2l8.1-74.5c0.8,0.2,2.3,0.2,2.9,0.2l-1.9,85.9
				c-0.4,17.3,25.7,17.7,26,0.5l2.1-91.9c1.2-0.6,2.3-1.3,3.5-2l7,88.8c1.3,16.9,27.3,15.5,26-2.1L510.8,235z"/>
			
				<rect x="423.2" y="90" transform="matrix(-1 -2.174050e-03 2.174050e-03 -1 937.2408 209.1315)" fill-rule="evenodd" fill="#3F73A1" width="91" height="28.1"/>
			<polygon fill-rule="evenodd" fill="#FFCD61" points="523.4,0 523.4,90.1 414.2,89.9 414.2,0 			"/>
			<polygon fill-rule="evenodd" fill="#FFAE00" points="698,0 698.1,90.5 752.7,90.6 752.6,0 			"/>
			<polygon fill-rule="evenodd" fill="#FFAE00" points="414.2,0 414.2,89.9 468.8,90 468.8,0 			"/>
		</g>
		<polygon fill-rule="evenodd" fill="#FFD7B7" points="796.6,1151.1 872.8,1126.9 853.8,1067 857.1,995.1 750.7,1006.6 		"/>
		<path fill-rule="evenodd" fill="#F2CAA9" d="M840,937.2L840,937.2c9.8-0.6,18.2,7,18.9,16.7l10.1,140.7
			c0.7,9.8-6.9,18.3-16.7,18.9l0,0c-0.9,0.1-1.8,0-2.7,0l0.8,10.6c0.7,10.2-7.3,19.2-17.5,19.8l0,0c-7.1,0.4-13.6-3.3-17.1-9
			c-3.2,2.8-7.4,4.6-12,4.9l0,0c-11.1,0.7-20.6-7.9-21.4-18.9l-14.1-195.1c-0.8-11.1,7.9-20.7,18.9-21.4l0,0
			c10.6-0.6,19.7,7.1,21.2,17.4c2.5-1.5,5.4-2.4,8.4-2.6l0,0c10.3-0.6,19,7.3,19.8,17.5l0.1,1C837.7,937.4,838.8,937.2,840,937.2z"
			/>
		<path fill-rule="evenodd" fill="#F2CAA9" d="M749.9,821.5L749.9,821.5c7-3.2,15.2-0.1,18.5,6.8l47.3,109.9l1,0.7l-31.3,0.4
			l-42.3-99.4C739.8,833,742.9,824.7,749.9,821.5z"/>
		<g>
			<rect x="441.3" y="634.6" fill-rule="evenodd" fill="#FFFFFF" width="336.3" height="475.6"/>
			<rect x="527.8" y="685.5" fill-rule="evenodd" fill="#CCCCCC" width="163.2" height="8.4"/>
			<rect x="472.2" y="706.5" fill-rule="evenodd" fill="#CCCCCC" width="274.5" height="8.4"/>
			<rect x="472.2" y="721.1" fill-rule="evenodd" fill="#CCCCCC" width="274.5" height="8.4"/>
			<rect x="472.2" y="735.8" fill-rule="evenodd" fill="#CCCCCC" width="274.5" height="8.4"/>
			<rect x="472.2" y="750.4" fill-rule="evenodd" fill="#CCCCCC" width="274.5" height="8.4"/>
			<rect x="472.2" y="765.1" fill-rule="evenodd" fill="#CCCCCC" width="274.5" height="8.4"/>
			<rect x="472.2" y="779.7" fill-rule="evenodd" fill="#CCCCCC" width="274.5" height="8.4"/>
			<rect x="472.2" y="794.4" fill-rule="evenodd" fill="#CCCCCC" width="274.5" height="8.4"/>
			<rect x="472.2" y="809" fill-rule="evenodd" fill="#CCCCCC" width="274.5" height="8.4"/>
			<rect x="472.2" y="823.7" fill-rule="evenodd" fill="#CCCCCC" width="137.3" height="8.4"/>
			<g>
				<circle fill-rule="evenodd" fill="#4C8EB4" cx="711.1" cy="904.7" r="35.6"/>
				<path fill-rule="evenodd" fill="#9ACAE6" d="M691.5,934.4c-5.1-3.4-9.3-8-12.1-13.5l31.7-16.2L691.5,934.4z"/>
				<path fill-rule="evenodd" fill="#87BBDA" d="M679.4,920.9c-2.5-4.9-3.9-10.4-3.9-16.2c0-11.4,5.3-21.5,13.7-28l21.9,28
					L679.4,920.9z"/>
				<path fill-rule="evenodd" fill="#73ACCD" d="M689.2,876.6c6-4.7,13.7-7.6,21.9-7.6v35.6L689.2,876.6z"/>
				<path fill-rule="evenodd" fill="#609DC1" d="M711.1,869.1v35.6l25.4-25C730,873.1,721,869.1,711.1,869.1z"/>
			</g>
			<g>
				<rect x="472.2" y="946.3" fill-rule="evenodd" fill="#CCCCCC" width="163.4" height="4.2"/>
				<rect x="472.2" y="858.9" fill-rule="evenodd" fill="#4C8EB4" width="29" height="87.5"/>
				<rect x="505.8" y="891.8" fill-rule="evenodd" fill="#609DC1" width="29" height="54.5"/>
				<rect x="539.3" y="910.3" fill-rule="evenodd" fill="#73ACCD" width="29" height="36"/>
				<rect x="572.9" y="893.4" fill-rule="evenodd" fill="#87BBDA" width="29" height="52.9"/>
				<rect x="606.5" y="908.5" fill-rule="evenodd" fill="#9ACAE6" width="29" height="37.9"/>
				<rect x="677.8" y="946.3" fill-rule="evenodd" fill="#CCCCCC" width="14.7" height="4.2"/>
				<rect x="699.2" y="946.3" fill-rule="evenodd" fill="#CCCCCC" width="43.5" height="4.2"/>
			</g>
			<rect x="472.2" y="963.7" fill-rule="evenodd" fill="#CCCCCC" width="126" height="8.4"/>
			<rect x="472.2" y="978.4" fill-rule="evenodd" fill="#CCCCCC" width="126" height="8.4"/>
			<rect x="472.2" y="993" fill-rule="evenodd" fill="#CCCCCC" width="126" height="8.4"/>
			<rect x="472.2" y="1007.7" fill-rule="evenodd" fill="#CCCCCC" width="126" height="8.4"/>
			<rect x="472.2" y="1022.3" fill-rule="evenodd" fill="#CCCCCC" width="126" height="8.4"/>
			<rect x="472.2" y="1037" fill-rule="evenodd" fill="#CCCCCC" width="126" height="8.4"/>
			<rect x="472.2" y="1051.6" fill-rule="evenodd" fill="#CCCCCC" width="126" height="8.4"/>
			<rect x="472.2" y="1066.3" fill-rule="evenodd" fill="#CCCCCC" width="63" height="8.4"/>
			<rect x="620.7" y="963.7" fill-rule="evenodd" fill="#CCCCCC" width="126" height="8.4"/>
			<rect x="620.7" y="978.4" fill-rule="evenodd" fill="#CCCCCC" width="126" height="8.4"/>
			<rect x="620.7" y="993" fill-rule="evenodd" fill="#CCCCCC" width="126" height="8.4"/>
			<rect x="620.7" y="1007.7" fill-rule="evenodd" fill="#CCCCCC" width="126" height="8.4"/>
			<rect x="620.7" y="1022.3" fill-rule="evenodd" fill="#CCCCCC" width="126" height="8.4"/>
			<rect x="620.7" y="1037" fill-rule="evenodd" fill="#CCCCCC" width="126" height="8.4"/>
			<rect x="620.7" y="1051.6" fill-rule="evenodd" fill="#CCCCCC" width="126" height="8.4"/>
			<rect x="620.7" y="1066.3" fill-rule="evenodd" fill="#CCCCCC" width="88.7" height="8.4"/>
		</g>
		<path fill-rule="evenodd" fill="#F2CAA9" d="M838.6,1175.8l9.7-3.1l-4.9-11.7l-39.2-94c-8.1-19.6-22.7-17.9-35.4-13.9l46.3,111
			C818.9,1173.4,829.5,1178.7,838.6,1175.8z"/>
		
			<rect x="784.7" y="1114.9" transform="matrix(-0.953 0.303 -0.303 -0.953 1976.6492 1974.2249)" fill-rule="evenodd" fill="#FFAE00" width="101" height="51.2"/>
		<polygon fill-rule="evenodd" fill="#F06358" points="785.5,1173.6 894.2,1139 919.9,1218.9 800.1,1218.9 		"/>
		<polygon fill-rule="evenodd" fill="#EE4E42" points="839.9,1156.3 894.2,1139 919.9,1218.9 860,1218.9 		"/>
		<path fill-rule="evenodd" fill="#F2CAA9" d="M722.8,957.6L722.8,957.6c7.5-3.4,16.3,0.1,19.8,7.6l19,41.3l35.9,26.1l51.7,30
			l-25.5,51.5l-37-25.8c-13,4.1-27-13.9-31.8-24.2l-39.9-86.8C711.8,969.8,715.3,960.9,722.8,957.6z"/>
		<g>
			
				<rect x="269" y="1056.5" transform="matrix(-0.887 -0.4617 0.4617 -0.887 73.3301 2251.332)" fill-rule="evenodd" fill="#F2CAA9" width="86.2" height="120.3"/>
			<path fill-rule="evenodd" fill="#F2CAA9" d="M422.1,1011.7c-4.9,9-10.6,20-17.4,33l46.2-26.3c19.6-11.1,31.3,5.1,33.5,15.9
				l-98.9,66.3c-13.8,9.2-38.3,4.7-58.9-5.4c-42.7-20.7-54.2-61.6-24.9-119.7l13.7-49.2c6-20.7,35.2-12.1,29,8.8l-6.1,20.5
				c1.3-0.6,2.9-0.9,4.5-1.2l16.2-39c8.1-20.2,35-6.4,28.3,10.6l-12.8,32.6c0.9,0.2,2.5,1,3.1,1.3l19.6-40
				c8.8-18,35.9-4.4,27.1,13.5l-22.7,46.3c0.9,1.3,1.7,2.6,2.5,3.9l55-87.6c10.5-16.7,36.5-1.2,25.6,16.2L422.1,1011.7z"/>
			<polygon fill-rule="evenodd" fill="#FFAE00" points="269,1084.9 362.8,1133.7 319.8,1218.9 269.6,1218.9 215.5,1190.7 			"/>
			<polygon fill-rule="evenodd" fill="#F06358" points="330.6,1218.9 351.7,1178 239.2,1119.4 187.9,1218.9 			"/>
			<polygon fill-rule="evenodd" fill="#EE4E42" points="330.6,1218.9 351.7,1178 295.5,1148.7 259.3,1218.9 			"/>
		</g>
		<g>
			<circle fill-rule="evenodd" fill="#FFFFFF" cx="140" cy="509.7" r="67.2"/>
			<circle fill-rule="evenodd" fill="#E6E6E6" cx="140" cy="509.7" r="63.1"/>
			<path fill-rule="evenodd" fill="#FFFFFF" d="M62.4,530.7l-1-4.4c-0.6-2.8,1.2-5.6,4-6.2l32.3-7c2.8-0.6,5.6,1.2,6.2,4l1,4.4
				c0.6,2.8-1.2,5.6-4,6.2l-32.3,7C65.8,535.3,63,533.5,62.4,530.7z"/>
			<path fill-rule="evenodd" fill="#E6E6E6" d="M64.8,529.3l-0.6-2.8c-0.4-1.8,0.8-3.6,2.6-4L97,516c1.8-0.4,3.6,0.8,4,2.6l0.6,2.8
				c0.4,1.8-0.8,3.6-2.6,4l-30.3,6.6C67,532.3,65.2,531.1,64.8,529.3z"/>
			<circle fill-rule="evenodd" fill="#FFFFFF" cx="140" cy="509.7" r="52.9"/>
			<circle fill-rule="evenodd" fill="#B3B3B3" cx="140" cy="509.7" r="47.7"/>
			<circle fill-rule="evenodd" fill="#886734" cx="140" cy="509.7" r="40.5"/>
			<circle fill-rule="evenodd" fill="#694F28" cx="140" cy="509.7" r="29.3"/>
			<path fill-rule="evenodd" fill="#BD9D6E" d="M112.2,486.7c5-6,11.9-10.5,20.2-12.3c19.5-4.2,38.6,8.1,42.8,27.6
				c1.8,8.2,0.6,16.4-2.8,23.5c2.4-6.4,3.1-13.5,1.5-20.7c-4.3-19.8-23.8-32.3-43.5-28C123.3,478.3,117,481.9,112.2,486.7z"/>
		</g>
		<g>
			<path fill-rule="evenodd" fill="#254659" d="M933.3,917.4c32.8-0.3,148.2,10.8,165.9,15c17.7,4.3,19.3,26.1,19.2,35
				c-0.1,8.9-10.6,11.3-10.5-3.8c0.2-15.1-1-23.2-11.5-24.3c-10.5-1.1-152.2-10.6-162-11C924.6,927.9,926.8,916.9,933.3,917.4z"/>
			<path fill-rule="evenodd" fill="#254659" d="M1121.4,919.9c-32.8-1.1-148.5,6.9-166.2,10.7c-17.8,3.8-20,25.6-20.1,34.5
				c-0.1,8.9,10.4,11.5,10.5-3.5c0.2-15.1,1.6-23.2,12.1-24c10.5-0.8,152.4-6.7,162.2-6.8C1129.8,930.6,1128,919.6,1121.4,919.9z"/>
			<path fill-rule="evenodd" d="M1077.7,981c0.9,0,1.9,0,2.8-0.1c26.5-1.7,32.8-12.6,35.5-26.5c3-15.2,3.1-20.6,7.3-21.9
				c3.1-1,3.8-4.4,3.6-8.4c-0.2-4-0.3-4.4-5.5-6.2c-4.1-1.4-26.8-3.6-43.7-2.9v4.1c13.3-0.5,26.3,1.2,30,3.5
				c8.6,5.2,6.6,29.8-0.3,41.9c-4.8,8.4-17.9,12.5-29.7,12.5V981z M1027.1,922.4c-5.9,0.1-29.9-6.7-46.9-8.3
				c-1.2-0.1-2.4-0.2-3.7-0.3v4.1c13.8,0.8,28.2,3.9,33.3,10.8c8.3,11.3-5.7,38.6-18.6,44.5c-3.9,1.8-9.1,2.7-14.7,2.6v3.9
				c22.9,0.4,31.1-14.8,33.8-19.8c5.1-9.5,3.8-22.8,16.9-22.6c13.1,0.2,11.6,13.2,16.5,22.8c2.6,5.2,10.4,21.2,34.1,21v-3.9
				c-5.9,0-11.5-1-15.6-3c-12.8-6.3-26-33.8-17.4-44.9c5.2-6.7,19.3-9.5,33-9.9v-4.1c-1.1,0-2.1,0.1-3.1,0.2
				C1059.3,916.4,1040.9,922.3,1027.1,922.4z M976.4,913.8c-16.8-1.1-39,0.5-43.1,1.8c-5.3,1.6-5.4,2-5.7,6c-0.3,4,0.3,7.4,3.4,8.5
				c4.2,1.5,4.2,6.8,6.7,22.1c2.3,13.9,8.3,25,34.8,27.4c1.4,0.1,2.7,0.2,3.9,0.2v-3.9c-12.1-0.1-25.7-4.5-30.4-13.3
				c-6.6-12.3-8-36.9,0.8-41.9c3.8-2.2,16.5-3.5,29.6-2.8V913.8z"/>
			<path fill-rule="evenodd" fill="#B0CAD9" d="M946.8,920.7c7.8-4.5,53-5.4,62.9,8.1c8.3,11.3-5.7,38.6-18.6,44.5
				c-12.6,5.7-38.2,2.1-45-10.7C939.4,950.3,938.1,925.7,946.8,920.7L946.8,920.7z M1107.8,922.8c-7.7-4.7-52.9-6.8-63.1,6.4
				c-8.6,11.1,4.6,38.7,17.4,44.9c12.4,6.1,38.1,3.1,45.3-9.5C1114.4,952.6,1116.4,928,1107.8,922.8z"/>
			<g>
				<path fill-rule="evenodd" fill="#D1E2EB" d="M951.2,919.2c13.9-3,49.9-2.3,58.5,9.5c5.8,8,0.7,23.7-7.4,34.5L951.2,919.2z"/>
				<path fill-rule="evenodd" fill="#D1E2EB" d="M1052,924l52.1,44.8c1.3-1.2,2.5-2.6,3.3-4.1c6.9-12.1,8.9-36.7,0.3-41.9
					C1101.3,918.9,1068.4,916.7,1052,924z"/>
			</g>
			<path fill-rule="evenodd" fill="#617F91" d="M1097.1,920.1c-11.3,0.3-24.7,1-38.7,1.7c-3.8,1-7.2,2.3-9.9,4l0,0l-0.1,0l0,0
				l-0.1,0l-0.1,0l-0.1,0l0,0l-0.1,0l-0.1,0l-0.1,0l0,0l-0.1,0.1l0,0l0,0l-0.1,0l-0.1,0l0,0l-0.1,0l-0.1,0l-0.1,0l0,0l-0.1,0l-0.1,0
				l0,0l0,0l-0.1,0l-0.1,0.1l0,0l0,0l-0.1,0.1l0,0l-0.1,0.1l0,0l-0.1,0.1l-0.1,0l0,0l-0.1,0.1l-0.1,0.1l0,0l0,0l-0.1,0.1l-0.1,0.1
				l-0.1,0.1l-0.1,0.1l-0.1,0.1h0l-0.1,0.1l-0.1,0.1l-0.1,0.1l-0.1,0.1l-0.1,0.1l0,0l0,0l-0.1,0.1l-0.1,0.1l0,0l0,0l-0.1,0.1l0,0
				l0,0l0,0l-0.1,0.1l0,0l0,0l-0.1,0.1l-0.1,0.1l0,0l0,0l-0.1,0.1l-0.1,0.1l0,0l0,0.1l0,0.1l0,0l0,0l0,0l-0.1,0.1l0,0l0,0l-0.1,0.1
				l0,0l-0.1,0.2l0,0.1l0,0l0,0l0,0l0,0l0,0.1l0,0l0,0.1l0,0l0,0l0,0l0,0l0,0.1l0,0l0,0.1l0,0l0,0.1l0,0l0,0l0,0.1l0,0l0,0.1
				c-1,1.6-1.6,3.4-1.9,5.4c27.4,1.9,50.3,3.5,54.3,3.9c10.5,1.1,11.7,9.2,11.5,24.3v0c2.9-5.4,4.8-13,5.3-20.2
				c-2.9-5.1-7.3-9.4-14.1-11c-1-0.3-2.4-0.5-4-0.8c7.1-0.3,13.1-0.5,17.5-0.7c-0.9-3.8-2.4-6.8-4.9-8.2
				C1106,921.7,1102.1,920.7,1097.1,920.1L1097.1,920.1z M957.6,918.2c11.3,0.6,24.7,1.6,38.6,2.7c3.8,1.1,7.2,2.5,9.8,4.3h0l0.1,0
				l0,0c0.1,0.1,0.2,0.2,0.3,0.2l0,0l0,0l0.1,0l0.1,0.1l0,0l0,0l0.1,0.1l0.1,0l0,0l0.1,0l0.1,0.1l0.1,0l0,0l0.1,0.1l0.1,0.1l0,0l0,0
				l0.1,0.1l0.1,0.1l0,0l0,0l0.1,0.1l0.1,0.1v0l0.1,0.1l0.1,0.1l0,0l0,0l0.1,0.1l0.1,0.1l0.1,0.1l0.1,0.1l0.1,0.1l0,0l0,0l0.1,0.1
				l0.1,0l0,0l0.1,0.1l0.1,0.1l0,0l0,0l0.1,0.1l0.1,0.1l0,0l0,0l0.1,0.1l0.1,0.1l0,0l0,0l0.1,0.1l0,0l0,0l0.1,0.1l0.1,0.1l0,0l0,0
				l0.1,0.1l0.1,0.1l0,0l0,0l0,0.1l0,0.1l0,0l0,0.1l0,0.1l0,0l0,0l0,0.1l0.1,0.1l0,0l0.1,0.1l0,0l0,0l0.1,0.1l0,0.1l0,0l0,0l0,0l0,0
				l0,0.1l0,0l0,0.1l0,0l0,0l0,0l0,0l0,0.1l0,0l0,0.1l0,0l0,0.1l0.1,0.1l0,0.1l0,0l0,0.1c0.9,1.6,1.5,3.4,1.7,5.4
				c-27.4,1.2-50.3,2.2-54.3,2.5c-10.5,0.8-11.9,8.9-12.1,24l0,0.1c-2.7-5.5-4.5-13.1-4.8-20.4c3-5.1,7.6-9.3,14.4-10.7
				c1-0.2,2.4-0.5,4.1-0.7c-7.1-0.5-13.1-0.8-17.5-1.1c1-3.8,2.6-6.7,5.1-8.1C948.7,919.6,952.6,918.8,957.6,918.2z"/>
			<g>
				<path fill-rule="evenodd" fill="#8097A6" d="M951.2,919.2l20.5,17.6c10.1-0.5,24.4-1.1,40.4-1.8c-0.3-2-0.8-3.8-1.7-5.4l0-0.1
					l0,0l0-0.1l-0.1-0.1l0-0.1l0,0l0-0.1l0,0l0-0.1l0,0l0,0l0,0l0,0l0-0.1l0,0l0-0.1l0,0l0,0l0,0l0,0l0-0.1l-0.1-0.1l0,0l0,0
					l-0.1-0.1l0,0l-0.1-0.1l0-0.1l0,0l0,0l0-0.1l0-0.1l0,0l0-0.1l0-0.1l0,0l0,0l-0.1-0.1l-0.1-0.1l0,0l0,0l-0.1-0.1l-0.1-0.1l0,0
					l0,0l-0.1-0.1l0,0l0,0l-0.1-0.1l-0.1-0.1l0,0l0,0l-0.1-0.1l-0.1-0.1l0,0l0,0l-0.1-0.1l-0.1-0.1l0,0l-0.1,0l-0.1-0.1l0,0l0,0
					l-0.1-0.1l-0.1-0.1l-0.1-0.1l-0.1-0.1l-0.1-0.1l0,0l0,0l-0.1-0.1l-0.1-0.1v0l-0.1-0.1l-0.1-0.1l0,0l0,0l-0.1-0.1l-0.1-0.1l0,0
					l0,0l-0.1-0.1l-0.1-0.1l0,0l-0.1,0l-0.1-0.1l-0.1,0l0,0l-0.1,0l-0.1-0.1l0,0l0,0l-0.1-0.1l-0.1,0l0,0l0,0
					c-0.1-0.1-0.2-0.2-0.3-0.2l0,0l-0.1,0h0c-2.6-1.8-6-3.2-9.8-4.3c-13.9-1.1-27.3-2.1-38.6-2.7C955.2,918.5,953,918.8,951.2,919.2
					z"/>
				<path fill-rule="evenodd" fill="#8097A6" d="M1097.1,920.1c-11.3,0.3-24.7,1-38.7,1.7c-2.3,0.6-4.4,1.3-6.4,2.2l15.4,13.2
					c15.3,1.1,26.4,1.9,29.1,2.2c10.5,1.1,11.7,9.2,11.5,24.3v0c2.9-5.4,4.8-13,5.3-20.2c-2.9-5.1-7.3-9.4-14.1-11
					c-1-0.3-2.4-0.5-4-0.8c7.1-0.3,13.1-0.5,17.5-0.7c-0.9-3.8-2.4-6.8-4.9-8.2C1106,921.7,1102.1,920.7,1097.1,920.1z"/>
			</g>
		</g>
		<g>
			<path fill-rule="evenodd" fill="#F85A68" d="M876.3,863.2l-12,27.2l-12-27.2v-222c0-3.6,2.9-6.5,6.5-6.5h10.9
				c3.6,0,6.5,2.9,6.5,6.5V863.2z"/>
			<path fill-rule="evenodd" fill="#C62229" d="M876.3,863.2l-12,27.2v-28.3l0-227.5l5.5,0c3.6,0,6.5,2.9,6.5,6.5V863.2z"/>
			<path fill-rule="evenodd" fill="#FFFFFF" d="M876.3,863.2l-12,27.2l-12-27.2V650.8c8.4-1.4,16.4-1.4,24,0V863.2z"/>
			<path fill-rule="evenodd" fill="#D0D0D0" d="M876.3,863.2l-12,27.2v-28.3l0-212.4c4.1,0,8.1,0.3,12,1.1V863.2z"/>
			<path fill-rule="evenodd" fill="#F5E6B6" d="M876.3,863.2l-12,27.2l-12-27.2V658.4c8.5-1.5,16.4-1.5,24,0L876.3,863.2z"/>
			<path fill-rule="evenodd" fill="#F9A818" d="M876.3,863.2l-12,27.2v-28.3V657.3c4.1,0,8.1,0.4,12,1.1V863.2z"/>
			<path fill-rule="evenodd" fill="#F0B16C" d="M876.3,863.2l-12,27.2l-12-27.2c3.8-0.7,7.8-1.1,12-1.1
				C868.4,862.1,872.4,862.5,876.3,863.2z"/>
			<path fill-rule="evenodd" fill="#C78B4C" d="M876.3,863.2l-12,27.2v-28.3C868.4,862.1,872.4,862.5,876.3,863.2z"/>
			<path fill-rule="evenodd" fill="#1E1E1E" d="M868.2,881.4l-4,9l-4-9c1.3-0.2,2.6-0.4,4-0.4C865.6,881.1,867,881.2,868.2,881.4z"
				/>
		</g>
		<g>
			<path fill-rule="evenodd" fill="#FFFFFF" d="M1138.2,267.6l-49.8,0c-9.4,0-17.2-7.7-17.1-17.2l0.1-133.8
				c0-9.4,7.7-17.2,17.2-17.1l49.8,0c9.4,0,17.2,7.7,17.1,17.2l-0.1,133.8C1155.4,259.9,1147.7,267.6,1138.2,267.6z"/>
			<rect x="1077.5" y="122.7" fill-rule="evenodd" width="71.8" height="127.2"/>
			<path fill-rule="evenodd" fill="#B3B3B3" d="M1129.5,258.3l-32.3,0c-0.9,0-1.6,0.7-1.6,1.6v0c0,0.9,0.7,1.6,1.6,1.6l32.3,0
				c0.9,0,1.6-0.7,1.6-1.6l0,0C1131.1,259,1130.3,258.3,1129.5,258.3z"/>
			<polygon fill-rule="evenodd" fill="#4D4D4D" points="1149.2,250 1077.5,122.7 1077.4,250 			"/>
			<path fill-rule="evenodd" fill="#B3B3B3" d="M1140.6,108.4l-54.4,0c-1.4,0-2.5,1.1-2.5,2.5l0,0c0,1.4,1.1,2.5,2.5,2.5l54.4,0
				c1.4,0,2.5-1.1,2.5-2.5l0,0C1143.1,109.5,1142,108.4,1140.6,108.4z"/>
			<circle fill-rule="evenodd" fill="#FFFFFF" cx="1113.5" cy="110.9" r="9.7"/>
			<circle fill-rule="evenodd" fill="#B3B3B3" cx="1113.5" cy="110.9" r="6.8"/>
		</g>
		<g>
			<rect x="61.3" y="634.6" fill="#FFAE00" width="339.7" height="216.7"/>
			<g>
				<rect x="76" y="636.3" fill="#FFFFFF" width="152.6" height="213"/>
				<g>
					<g>
						<path fill="#726657" d="M222,814.2c2.2,0,4,1.8,4,4c0,2.2-1.8,4-4,4s-4-1.8-4-4C218,816,219.8,814.2,222,814.2z"/>
						<path fill="#8C8E90" d="M225.2,817.1c0-0.7-0.2-1.3-0.4-1.8c0.7,0.7,1.2,1.7,1.2,2.8c0,2.2-1.8,4-4,4c-1.5,0-2.9-0.9-3.5-2.1
							c0.7,0.7,1.7,1.1,2.8,1.1C223.4,821.1,225.2,819.3,225.2,817.1z"/>
					</g>
					<g>
						<circle fill="#726657" cx="222" cy="802.3" r="4"/>
						<path fill="#8C8E90" d="M225.2,801.3c0-0.7-0.2-1.3-0.4-1.8c0.7,0.7,1.2,1.7,1.2,2.8c0,2.2-1.8,4-4,4c-1.5,0-2.9-0.9-3.5-2.1
							c0.7,0.7,1.7,1.1,2.8,1.1C223.4,805.2,225.2,803.5,225.2,801.3z"/>
					</g>
					<g>
						<path fill="#726657" d="M222,782.4c2.2,0,4,1.8,4,4c0,2.2-1.8,4-4,4s-4-1.8-4-4C218,784.2,219.8,782.4,222,782.4z"/>
						<path fill="#8C8E90" d="M225.2,785.4c0-0.7-0.2-1.3-0.4-1.8c0.7,0.7,1.2,1.7,1.2,2.8c0,2.2-1.8,4-4,4c-1.5,0-2.9-0.9-3.5-2.1
							c0.7,0.7,1.7,1.1,2.8,1.1C223.4,789.4,225.2,787.6,225.2,785.4z"/>
					</g>
					<g>
						<circle fill="#726657" cx="222" cy="770.5" r="4"/>
						<path fill="#8C8E90" d="M225.2,769.5c0-0.7-0.2-1.3-0.4-1.8c0.7,0.7,1.2,1.7,1.2,2.8c0,2.2-1.8,4-4,4c-1.5,0-2.9-0.9-3.5-2.1
							c0.7,0.7,1.7,1.1,2.8,1.1C223.4,773.5,225.2,771.7,225.2,769.5z"/>
					</g>
					<g>
						<path fill="#726657" d="M222,750.7c2.2,0,4,1.8,4,4c0,2.2-1.8,4-4,4s-4-1.8-4-4C218,752.5,219.8,750.7,222,750.7z"/>
						<path fill="#8C8E90" d="M225.2,753.7c0-0.7-0.2-1.3-0.4-1.8c0.7,0.7,1.2,1.7,1.2,2.8c0,2.2-1.8,4-4,4c-1.5,0-2.9-0.9-3.5-2.1
							c0.7,0.7,1.7,1.1,2.8,1.1C223.4,757.6,225.2,755.8,225.2,753.7z"/>
					</g>
					<g>
						<path fill="#726657" d="M222,734.8c2.2,0,4,1.8,4,4c0,2.2-1.8,4-4,4s-4-1.8-4-4C218,736.6,219.8,734.8,222,734.8z"/>
						<path fill="#8C8E90" d="M225.2,737.8c0-0.7-0.2-1.3-0.4-1.8c0.7,0.7,1.2,1.7,1.2,2.8c0,2.2-1.8,4-4,4c-1.5,0-2.9-0.9-3.5-2.1
							c0.7,0.7,1.7,1.1,2.8,1.1C223.4,741.7,225.2,740,225.2,737.8z"/>
					</g>
					<g>
						<circle fill="#726657" cx="222" cy="722.9" r="4"/>
						<path fill="#8C8E90" d="M225.2,721.9c0-0.7-0.2-1.3-0.4-1.8c0.7,0.7,1.2,1.7,1.2,2.8c0,2.2-1.8,4-4,4c-1.5,0-2.9-0.9-3.5-2.1
							c0.7,0.7,1.7,1.1,2.8,1.1C223.4,725.9,225.2,724.1,225.2,721.9z"/>
					</g>
					<g>
						<path fill="#726657" d="M222,703.1c2.2,0,4,1.8,4,4c0,2.2-1.8,4-4,4s-4-1.8-4-4C218,704.8,219.8,703.1,222,703.1z"/>
						<path fill="#8C8E90" d="M225.2,706c0-0.7-0.2-1.3-0.4-1.8c0.7,0.7,1.2,1.7,1.2,2.8c0,2.2-1.8,4-4,4c-1.5,0-2.9-0.9-3.5-2.1
							c0.7,0.7,1.7,1.1,2.8,1.1C223.4,710,225.2,708.2,225.2,706z"/>
					</g>
					<g>
						<circle fill="#726657" cx="222" cy="691.1" r="4"/>
						<path fill="#8C8E90" d="M225.2,690.1c0-0.7-0.2-1.3-0.4-1.8c0.7,0.7,1.2,1.7,1.2,2.8c0,2.2-1.8,4-4,4c-1.5,0-2.9-0.9-3.5-2.1
							c0.7,0.7,1.7,1.1,2.8,1.1C223.4,694.1,225.2,692.3,225.2,690.1z"/>
					</g>
					<g>
						<circle fill="#726657" cx="222" cy="675.3" r="4"/>
						<path fill="#8C8E90" d="M225.2,674.3c0-0.7-0.2-1.3-0.4-1.8c0.7,0.7,1.2,1.7,1.2,2.8c0,2.2-1.8,4-4,4c-1.5,0-2.9-0.9-3.5-2.1
							c0.7,0.7,1.7,1.1,2.8,1.1C223.4,678.2,225.2,676.5,225.2,674.3z"/>
					</g>
					<g>
						<path fill="#726657" d="M222,655.4c2.2,0,4,1.8,4,4c0,2.2-1.8,4-4,4s-4-1.8-4-4C218,657.2,219.8,655.4,222,655.4z"/>
						<path fill="#8C8E90" d="M225.2,658.4c0-0.7-0.2-1.3-0.4-1.8c0.7,0.7,1.2,1.7,1.2,2.8c0,2.2-1.8,4-4,4c-1.5,0-2.9-0.9-3.5-2.1
							c0.7,0.7,1.7,1.1,2.8,1.1C223.4,662.4,225.2,660.6,225.2,658.4z"/>
					</g>
				</g>
				<path fill="#343434" d="M227.7,657.7h3.7c0.9,0,1.7,0.9,1.7,2.1c0,1.2-0.7,2.1-1.7,2.1h-3.7v-1.1h3.7c0.3,0,0.5-0.4,0.5-1
					c0-0.6-0.3-1-0.5-1l0,0h-3.7V657.7z M224.1,657.7h3.7v1.1h-3.7c-0.3,0-0.6,0.4-0.6,1c0,0.6,0.3,1,0.6,1h3.7v1.1h-3.7
					c-0.9,0-1.7-0.9-1.7-2.1C222.4,658.7,223.2,657.7,224.1,657.7z"/>
				<path fill="#343434" d="M227.7,673.5h3.7c0.9,0,1.7,0.9,1.7,2.1c0,1.2-0.7,2.1-1.7,2.1h-3.7v-1.1h3.7c0.3,0,0.5-0.4,0.5-1
					c0-0.6-0.3-1-0.5-1l0,0h-3.7V673.5z M224.1,673.5h3.7v1.1h-3.7c-0.3,0-0.6,0.4-0.6,1c0,0.6,0.3,1,0.6,1h3.7v1.1h-3.7
					c-0.9,0-1.7-0.9-1.7-2.1C222.4,674.4,223.2,673.5,224.1,673.5z"/>
				<path fill="#343434" d="M227.7,689.3h3.7c0.9,0,1.7,0.9,1.7,2.1c0,1.2-0.7,2.1-1.7,2.1h-3.7v-1.1h3.7c0.3,0,0.5-0.4,0.5-1
					c0-0.6-0.3-1-0.5-1l0,0h-3.7V689.3z M224.1,689.3h3.7v1.1h-3.7c-0.3,0-0.6,0.4-0.6,1c0,0.6,0.3,1,0.6,1h3.7v1.1h-3.7
					c-0.9,0-1.7-0.9-1.7-2.1C222.4,690.2,223.2,689.3,224.1,689.3z"/>
				<path fill="#343434" d="M227.7,705.1h3.7c0.9,0,1.7,0.9,1.7,2.1c0,1.2-0.7,2.1-1.7,2.1h-3.7v-1.1h3.7c0.3,0,0.5-0.4,0.5-1
					c0-0.6-0.3-1-0.5-1l0,0h-3.7V705.1z M224.1,705.1h3.7v1.1h-3.7c-0.3,0-0.6,0.4-0.6,1c0,0.6,0.3,1,0.6,1h3.7v1.1h-3.7
					c-0.9,0-1.7-0.9-1.7-2.1C222.4,706,223.2,705.1,224.1,705.1z"/>
				<path fill="#343434" d="M227.7,720.8h3.7c0.9,0,1.7,0.9,1.7,2.1c0,1.2-0.7,2.1-1.7,2.1h-3.7v-1.1h3.7c0.3,0,0.5-0.4,0.5-1
					c0-0.6-0.3-1-0.5-1l0,0h-3.7V720.8z M224.1,720.8h3.7v1.1h-3.7c-0.3,0-0.6,0.4-0.6,1c0,0.6,0.3,1,0.6,1h3.7v1.1h-3.7
					c-0.9,0-1.7-0.9-1.7-2.1C222.4,721.8,223.2,720.8,224.1,720.8z"/>
				<path fill="#343434" d="M227.7,736.6h3.7c0.9,0,1.7,0.9,1.7,2.1c0,1.2-0.7,2.1-1.7,2.1h-3.7v-1.1h3.7c0.3,0,0.5-0.4,0.5-1
					c0-0.6-0.3-1-0.5-1l0,0h-3.7V736.6z M224.1,736.6h3.7v1.1h-3.7c-0.3,0-0.6,0.4-0.6,1c0,0.6,0.3,1,0.6,1h3.7v1.1h-3.7
					c-0.9,0-1.7-0.9-1.7-2.1C222.4,737.5,223.2,736.6,224.1,736.6z"/>
				<path fill="#343434" d="M227.7,752.4h3.7c0.9,0,1.7,0.9,1.7,2.1c0,1.2-0.7,2.1-1.7,2.1h-3.7v-1.1h3.7c0.3,0,0.5-0.4,0.5-1
					c0-0.6-0.3-1-0.5-1l0,0h-3.7V752.4z M224.1,752.4h3.7v1.1h-3.7c-0.3,0-0.6,0.4-0.6,1c0,0.6,0.3,1,0.6,1h3.7v1.1h-3.7
					c-0.9,0-1.7-0.9-1.7-2.1C222.4,753.3,223.2,752.4,224.1,752.4z"/>
				<path fill="#343434" d="M227.7,768.1h3.7c0.9,0,1.7,0.9,1.7,2.1c0,1.2-0.7,2.1-1.7,2.1h-3.7v-1.1h3.7c0.3,0,0.5-0.4,0.5-1
					c0-0.6-0.3-1-0.5-1l0,0h-3.7V768.1z M224.1,768.1h3.7v1.1h-3.7c-0.3,0-0.6,0.4-0.6,1c0,0.6,0.3,1,0.6,1h3.7v1.1h-3.7
					c-0.9,0-1.7-0.9-1.7-2.1C222.4,769.1,223.2,768.1,224.1,768.1z"/>
				<path fill="#343434" d="M227.7,783.9h3.7c0.9,0,1.7,0.9,1.7,2.1c0,1.2-0.7,2.1-1.7,2.1h-3.7V787h3.7c0.3,0,0.5-0.4,0.5-1
					c0-0.6-0.3-1-0.5-1l0,0h-3.7V783.9z M224.1,783.9h3.7v1.1h-3.7c-0.3,0-0.6,0.4-0.6,1c0,0.6,0.3,1,0.6,1h3.7v1.1h-3.7
					c-0.9,0-1.7-0.9-1.7-2.1C222.4,784.8,223.2,783.9,224.1,783.9z"/>
				<path fill="#343434" d="M227.7,799.7h3.7c0.9,0,1.7,0.9,1.7,2.1c0,1.2-0.7,2.1-1.7,2.1h-3.7v-1.1h3.7c0.3,0,0.5-0.4,0.5-1
					c0-0.6-0.3-1-0.5-1l0,0h-3.7V799.7z M224.1,799.7h3.7v1.1h-3.7c-0.3,0-0.6,0.4-0.6,1c0,0.6,0.3,1,0.6,1h3.7v1.1h-3.7
					c-0.9,0-1.7-0.9-1.7-2.1C222.4,800.6,223.2,799.7,224.1,799.7z"/>
				<path fill="#343434" d="M227.7,815.4h3.7c0.9,0,1.7,0.9,1.7,2.1c0,1.2-0.7,2.1-1.7,2.1h-3.7v-1.1h3.7c0.3,0,0.5-0.4,0.5-1
					c0-0.6-0.3-1-0.5-1l0,0h-3.7V815.4z M224.1,815.4h3.7v1.1h-3.7c-0.3,0-0.6,0.4-0.6,1c0,0.6,0.3,1,0.6,1h3.7v1.1h-3.7
					c-0.9,0-1.7-0.9-1.7-2.1C222.4,816.4,223.2,815.4,224.1,815.4z"/>
				<rect x="91.1" y="669.7" fill="#5D5E60" width="124.7" height="0.3"/>
				<rect x="91.1" y="677.3" fill="#5D5E60" width="124.7" height="0.3"/>
				<rect x="91.1" y="684.8" fill="#5D5E60" width="124.7" height="0.3"/>
				<rect x="91.1" y="692.4" fill="#5D5E60" width="124.7" height="0.3"/>
				<rect x="91.1" y="699.9" fill="#5D5E60" width="124.7" height="0.3"/>
				<rect x="91.1" y="707.5" fill="#5D5E60" width="124.7" height="0.3"/>
				<rect x="91.1" y="715" fill="#5D5E60" width="124.7" height="0.3"/>
				<rect x="91.1" y="722.6" fill="#5D5E60" width="124.7" height="0.3"/>
				<rect x="91.1" y="730.1" fill="#5D5E60" width="124.7" height="0.3"/>
				<rect x="91.1" y="737.7" fill="#5D5E60" width="124.7" height="0.3"/>
				<rect x="91.1" y="745.2" fill="#5D5E60" width="124.7" height="0.3"/>
				<rect x="91.1" y="752.8" fill="#5D5E60" width="124.7" height="0.3"/>
				<rect x="91.1" y="760.4" fill="#5D5E60" width="124.7" height="0.3"/>
				<rect x="91.1" y="767.9" fill="#5D5E60" width="124.7" height="0.3"/>
				<rect x="91.1" y="775.5" fill="#5D5E60" width="124.7" height="0.3"/>
				<rect x="91.1" y="783" fill="#5D5E60" width="124.7" height="0.3"/>
				<rect x="91.1" y="790.6" fill="#5D5E60" width="124.7" height="0.3"/>
				<rect x="91.1" y="798.1" fill="#5D5E60" width="124.7" height="0.3"/>
				<rect x="91.1" y="805.7" fill="#5D5E60" width="124.7" height="0.3"/>
				<rect x="91.1" y="813.2" fill="#5D5E60" width="124.7" height="0.3"/>
				<rect x="115" y="820.8" fill="#5D5E60" width="100.7" height="0.3"/>
			</g>
			<path fill="#2C577D" d="M381.5,685.3h3.7c5.8,0,10.5-4,10.5-9v-31c0-5-4.7-9-10.5-9h-3.7V685.3z"/>
			<path fill="#DA4622" d="M381.5,720.2h3.7c5.8,0,10.5-4,10.5-9v-31c0-5-4.7-9-10.5-9h-3.7V720.2z"/>
			<path fill="#FFCF66" d="M381.5,755h3.7c5.8,0,10.5-4,10.5-9v-31c0-5-4.7-9-10.5-9h-3.7V755z"/>
			<g>
				<rect x="231" y="636.3" fill="#B3B3B3" width="152.6" height="213"/>
				<polygon fill="#FFFFFF" points="383.5,636.3 231,636.3 231,849.3 343.7,849.3 383.5,823.5 				"/>
				<path fill="#E6E6E6" d="M343.7,849.3c0,0,10.8-11.2,8.8-26.7c0,0,17.6,5.4,31,0.9L343.7,849.3z"/>
				<g>
					<g>
						<path fill="#726657" d="M237.5,814.2c-2.2,0-4,1.8-4,4c0,2.2,1.8,4,4,4c2.2,0,4-1.8,4-4C241.5,816,239.7,814.2,237.5,814.2z"
							/>
						<path fill="#8C8E90" d="M234.3,817.1c0-0.7,0.2-1.3,0.4-1.8c-0.7,0.7-1.2,1.7-1.2,2.8c0,2.2,1.8,4,4,4c1.5,0,2.9-0.9,3.5-2.1
							c-0.7,0.7-1.7,1.1-2.8,1.1C236.1,821.1,234.3,819.3,234.3,817.1z"/>
					</g>
					<g>
						<path fill="#726657" d="M237.5,798.3c-2.2,0-4,1.8-4,4c0,2.2,1.8,4,4,4c2.2,0,4-1.8,4-4C241.5,800.1,239.7,798.3,237.5,798.3z
							"/>
						<path fill="#8C8E90" d="M234.3,801.3c0-0.7,0.2-1.3,0.4-1.8c-0.7,0.7-1.2,1.7-1.2,2.8c0,2.2,1.8,4,4,4c1.5,0,2.9-0.9,3.5-2.1
							c-0.7,0.7-1.7,1.1-2.8,1.1C236.1,805.2,234.3,803.5,234.3,801.3z"/>
					</g>
					<g>
						<path fill="#726657" d="M237.5,782.4c-2.2,0-4,1.8-4,4c0,2.2,1.8,4,4,4c2.2,0,4-1.8,4-4C241.5,784.2,239.7,782.4,237.5,782.4z
							"/>
						<path fill="#8C8E90" d="M234.3,785.4c0-0.7,0.2-1.3,0.4-1.8c-0.7,0.7-1.2,1.7-1.2,2.8c0,2.2,1.8,4,4,4c1.5,0,2.9-0.9,3.5-2.1
							c-0.7,0.7-1.7,1.1-2.8,1.1C236.1,789.4,234.3,787.6,234.3,785.4z"/>
					</g>
					<g>
						<path fill="#726657" d="M237.5,766.6c-2.2,0-4,1.8-4,4c0,2.2,1.8,4,4,4c2.2,0,4-1.8,4-4C241.5,768.3,239.7,766.6,237.5,766.6z
							"/>
						<path fill="#8C8E90" d="M234.3,769.5c0-0.7,0.2-1.3,0.4-1.8c-0.7,0.7-1.2,1.7-1.2,2.8c0,2.2,1.8,4,4,4c1.5,0,2.9-0.9,3.5-2.1
							c-0.7,0.7-1.7,1.1-2.8,1.1C236.1,773.5,234.3,771.7,234.3,769.5z"/>
					</g>
					<g>
						<path fill="#726657" d="M237.5,750.7c-2.2,0-4,1.8-4,4c0,2.2,1.8,4,4,4c2.2,0,4-1.8,4-4C241.5,752.5,239.7,750.7,237.5,750.7z
							"/>
						<path fill="#8C8E90" d="M234.3,753.7c0-0.7,0.2-1.3,0.4-1.8c-0.7,0.7-1.2,1.7-1.2,2.8c0,2.2,1.8,4,4,4c1.5,0,2.9-0.9,3.5-2.1
							c-0.7,0.7-1.7,1.1-2.8,1.1C236.1,757.6,234.3,755.8,234.3,753.7z"/>
					</g>
					<g>
						<path fill="#726657" d="M237.5,734.8c-2.2,0-4,1.8-4,4c0,2.2,1.8,4,4,4c2.2,0,4-1.8,4-4C241.5,736.6,239.7,734.8,237.5,734.8z
							"/>
						<path fill="#8C8E90" d="M234.3,737.8c0-0.7,0.2-1.3,0.4-1.8c-0.7,0.7-1.2,1.7-1.2,2.8c0,2.2,1.8,4,4,4c1.5,0,2.9-0.9,3.5-2.1
							c-0.7,0.7-1.7,1.1-2.8,1.1C236.1,741.7,234.3,740,234.3,737.8z"/>
					</g>
					<g>
						<path fill="#726657" d="M237.5,718.9c-2.2,0-4,1.8-4,4c0,2.2,1.8,4,4,4c2.2,0,4-1.8,4-4C241.5,720.7,239.7,718.9,237.5,718.9z
							"/>
						<path fill="#8C8E90" d="M234.3,721.9c0-0.7,0.2-1.3,0.4-1.8c-0.7,0.7-1.2,1.7-1.2,2.8c0,2.2,1.8,4,4,4c1.5,0,2.9-0.9,3.5-2.1
							c-0.7,0.7-1.7,1.1-2.8,1.1C236.1,725.9,234.3,724.1,234.3,721.9z"/>
					</g>
					<g>
						<path fill="#726657" d="M237.5,703.1c-2.2,0-4,1.8-4,4c0,2.2,1.8,4,4,4c2.2,0,4-1.8,4-4C241.5,704.8,239.7,703.1,237.5,703.1z
							"/>
						<path fill="#8C8E90" d="M234.3,706c0-0.7,0.2-1.3,0.4-1.8c-0.7,0.7-1.2,1.7-1.2,2.8c0,2.2,1.8,4,4,4c1.5,0,2.9-0.9,3.5-2.1
							c-0.7,0.7-1.7,1.1-2.8,1.1C236.1,710,234.3,708.2,234.3,706z"/>
					</g>
					<g>
						<path fill="#726657" d="M237.5,687.2c-2.2,0-4,1.8-4,4c0,2.2,1.8,4,4,4c2.2,0,4-1.8,4-4C241.5,689,239.7,687.2,237.5,687.2z"
							/>
						<path fill="#8C8E90" d="M234.3,690.1c0-0.7,0.2-1.3,0.4-1.8c-0.7,0.7-1.2,1.7-1.2,2.8c0,2.2,1.8,4,4,4c1.5,0,2.9-0.9,3.5-2.1
							c-0.7,0.7-1.7,1.1-2.8,1.1C236.1,694.1,234.3,692.3,234.3,690.1z"/>
					</g>
					<g>
						<path fill="#726657" d="M237.5,671.3c-2.2,0-4,1.8-4,4c0,2.2,1.8,4,4,4c2.2,0,4-1.8,4-4C241.5,673.1,239.7,671.3,237.5,671.3z
							"/>
						<path fill="#8C8E90" d="M234.3,674.3c0-0.7,0.2-1.3,0.4-1.8c-0.7,0.7-1.2,1.7-1.2,2.8c0,2.2,1.8,4,4,4c1.5,0,2.9-0.9,3.5-2.1
							c-0.7,0.7-1.7,1.1-2.8,1.1C236.1,678.2,234.3,676.5,234.3,674.3z"/>
					</g>
					<g>
						<path fill="#726657" d="M237.5,655.4c-2.2,0-4,1.8-4,4c0,2.2,1.8,4,4,4c2.2,0,4-1.8,4-4C241.5,657.2,239.7,655.4,237.5,655.4z
							"/>
						<path fill="#8C8E90" d="M234.3,658.4c0-0.7,0.2-1.3,0.4-1.8c-0.7,0.7-1.2,1.7-1.2,2.8c0,2.2,1.8,4,4,4c1.5,0,2.9-0.9,3.5-2.1
							c-0.7,0.7-1.7,1.1-2.8,1.1C236.1,662.4,234.3,660.6,234.3,658.4z"/>
					</g>
				</g>
				<path fill="#343434" d="M237.1,659.9c0,1.2-0.7,2.1-1.7,2.1h-3.7v-1.1h3.7c0.3,0,0.6-0.4,0.6-1c0-0.6-0.3-1-0.6-1h-3.7v-1.1h3.7
					C236.3,657.7,237.1,658.7,237.1,659.9z M231.8,662h-3.7c-0.9,0-1.7-0.9-1.7-2.1c0-1.2,0.7-2.1,1.7-2.1h3.7v1.1h-3.7
					c-0.3,0-0.5,0.4-0.5,1l0,0c0,0.6,0.3,1,0.5,1h3.7V662z"/>
				<path fill="#343434" d="M237.1,675.6c0,1.2-0.7,2.1-1.7,2.1h-3.7v-1.1h3.7c0.3,0,0.6-0.4,0.6-1c0-0.6-0.3-1-0.6-1h-3.7v-1.1h3.7
					C236.3,673.5,237.1,674.4,237.1,675.6z M231.8,677.7h-3.7c-0.9,0-1.7-0.9-1.7-2.1c0-1.2,0.7-2.1,1.7-2.1h3.7v1.1h-3.7
					c-0.3,0-0.5,0.4-0.5,1l0,0c0,0.6,0.3,1,0.5,1h3.7V677.7z"/>
				<path fill="#343434" d="M237.1,691.4c0,1.2-0.7,2.1-1.7,2.1h-3.7v-1.1h3.7c0.3,0,0.6-0.4,0.6-1c0-0.6-0.3-1-0.6-1h-3.7v-1.1h3.7
					C236.3,689.3,237.1,690.2,237.1,691.4z M231.8,693.5h-3.7c-0.9,0-1.7-0.9-1.7-2.1c0-1.2,0.7-2.1,1.7-2.1h3.7v1.1h-3.7
					c-0.3,0-0.5,0.4-0.5,1l0,0c0,0.6,0.3,1,0.5,1h3.7V693.5z"/>
				<path fill="#343434" d="M237.1,707.2c0,1.2-0.7,2.1-1.7,2.1h-3.7v-1.1h3.7c0.3,0,0.6-0.4,0.6-1c0-0.6-0.3-1-0.6-1h-3.7v-1.1h3.7
					C236.3,705.1,237.1,706,237.1,707.2z M231.8,709.3h-3.7c-0.9,0-1.7-0.9-1.7-2.1c0-1.2,0.7-2.1,1.7-2.1h3.7v1.1h-3.7
					c-0.3,0-0.5,0.4-0.5,1l0,0c0,0.6,0.3,1,0.5,1h3.7V709.3z"/>
				<path fill="#343434" d="M237.1,722.9c0,1.2-0.7,2.1-1.7,2.1h-3.7v-1.1h3.7c0.3,0,0.6-0.4,0.6-1c0-0.6-0.3-1-0.6-1h-3.7v-1.1h3.7
					C236.3,720.8,237.1,721.8,237.1,722.9z M231.8,725.1h-3.7c-0.9,0-1.7-0.9-1.7-2.1c0-1.2,0.7-2.1,1.7-2.1h3.7v1.1h-3.7
					c-0.3,0-0.5,0.4-0.5,1l0,0c0,0.6,0.3,1,0.5,1h3.7V725.1z"/>
				<path fill="#343434" d="M237.1,738.7c0,1.2-0.7,2.1-1.7,2.1h-3.7v-1.1h3.7c0.3,0,0.6-0.4,0.6-1c0-0.6-0.3-1-0.6-1h-3.7v-1.1h3.7
					C236.3,736.6,237.1,737.5,237.1,738.7z M231.8,740.8h-3.7c-0.9,0-1.7-0.9-1.7-2.1c0-1.2,0.7-2.1,1.7-2.1h3.7v1.1h-3.7
					c-0.3,0-0.5,0.4-0.5,1l0,0c0,0.6,0.3,1,0.5,1h3.7V740.8z"/>
				<path fill="#343434" d="M237.1,754.5c0,1.2-0.7,2.1-1.7,2.1h-3.7v-1.1h3.7c0.3,0,0.6-0.4,0.6-1c0-0.6-0.3-1-0.6-1h-3.7v-1.1h3.7
					C236.3,752.4,237.1,753.3,237.1,754.5z M231.8,756.6h-3.7c-0.9,0-1.7-0.9-1.7-2.1c0-1.2,0.7-2.1,1.7-2.1h3.7v1.1h-3.7
					c-0.3,0-0.5,0.4-0.5,1l0,0c0,0.6,0.3,1,0.5,1h3.7V756.6z"/>
				<path fill="#343434" d="M237.1,770.3c0,1.2-0.7,2.1-1.7,2.1h-3.7v-1.1h3.7c0.3,0,0.6-0.4,0.6-1c0-0.6-0.3-1-0.6-1h-3.7v-1.1h3.7
					C236.3,768.1,237.1,769.1,237.1,770.3z M231.8,772.4h-3.7c-0.9,0-1.7-0.9-1.7-2.1c0-1.2,0.7-2.1,1.7-2.1h3.7v1.1h-3.7
					c-0.3,0-0.5,0.4-0.5,1l0,0c0,0.6,0.3,1,0.5,1h3.7V772.4z"/>
				<path fill="#343434" d="M237.1,786c0,1.2-0.7,2.1-1.7,2.1h-3.7V787h3.7c0.3,0,0.6-0.4,0.6-1c0-0.6-0.3-1-0.6-1h-3.7v-1.1h3.7
					C236.3,783.9,237.1,784.8,237.1,786z M231.8,788.1h-3.7c-0.9,0-1.7-0.9-1.7-2.1c0-1.2,0.7-2.1,1.7-2.1h3.7v1.1h-3.7
					c-0.3,0-0.5,0.4-0.5,1l0,0c0,0.6,0.3,1,0.5,1h3.7V788.1z"/>
				<path fill="#343434" d="M237.1,801.8c0,1.2-0.7,2.1-1.7,2.1h-3.7v-1.1h3.7c0.3,0,0.6-0.4,0.6-1c0-0.6-0.3-1-0.6-1h-3.7v-1.1h3.7
					C236.3,799.7,237.1,800.6,237.1,801.8z M231.8,803.9h-3.7c-0.9,0-1.7-0.9-1.7-2.1c0-1.2,0.7-2.1,1.7-2.1h3.7v1.1h-3.7
					c-0.3,0-0.5,0.4-0.5,1l0,0c0,0.6,0.3,1,0.5,1h3.7V803.9z"/>
				<path fill="#343434" d="M237.1,817.6c0,1.2-0.7,2.1-1.7,2.1h-3.7v-1.1h3.7c0.3,0,0.6-0.4,0.6-1c0-0.6-0.3-1-0.6-1h-3.7v-1.1h3.7
					C236.3,815.4,237.1,816.4,237.1,817.6z M231.8,819.7h-3.7c-0.9,0-1.7-0.9-1.7-2.1c0-1.2,0.7-2.1,1.7-2.1h3.7v1.1h-3.7
					c-0.3,0-0.5,0.4-0.5,1l0,0c0,0.6,0.3,1,0.5,1h3.7V819.7z"/>
				<rect x="243.8" y="669.7" fill="#5D5E60" width="124.7" height="0.3"/>
				<rect x="243.8" y="677.3" fill="#5D5E60" width="124.7" height="0.3"/>
				<rect x="243.8" y="684.8" fill="#5D5E60" width="124.7" height="0.3"/>
				<rect x="243.8" y="692.4" fill="#5D5E60" width="124.7" height="0.3"/>
				<rect x="243.8" y="699.9" fill="#5D5E60" width="124.7" height="0.3"/>
				<rect x="243.8" y="707.5" fill="#5D5E60" width="124.7" height="0.3"/>
				<rect x="243.8" y="715" fill="#5D5E60" width="124.7" height="0.3"/>
				<rect x="243.8" y="722.6" fill="#5D5E60" width="124.7" height="0.3"/>
				<rect x="243.8" y="730.1" fill="#5D5E60" width="124.7" height="0.3"/>
				<rect x="243.8" y="737.7" fill="#5D5E60" width="124.7" height="0.3"/>
				<rect x="243.8" y="745.2" fill="#5D5E60" width="124.7" height="0.3"/>
				<rect x="243.8" y="752.8" fill="#5D5E60" width="124.7" height="0.3"/>
				<rect x="243.8" y="760.4" fill="#5D5E60" width="124.7" height="0.3"/>
				<rect x="243.8" y="767.9" fill="#5D5E60" width="124.7" height="0.3"/>
				<rect x="243.8" y="775.5" fill="#5D5E60" width="124.7" height="0.3"/>
				<rect x="243.8" y="783" fill="#5D5E60" width="124.7" height="0.3"/>
				<rect x="243.8" y="790.6" fill="#5D5E60" width="124.7" height="0.3"/>
				<rect x="243.8" y="798.1" fill="#5D5E60" width="124.7" height="0.3"/>
				<rect x="243.8" y="805.7" fill="#5D5E60" width="124.7" height="0.3"/>
				<rect x="243.8" y="813.2" fill="#5D5E60" width="124.7" height="0.3"/>
				<rect x="243.8" y="820.8" fill="#5D5E60" width="100.7" height="0.3"/>
			</g>
		</g>
		<g>
			<rect x="989.6" y="464.5" fill-rule="evenodd" fill="#FFFFFF" width="43.5" height="21.2"/>
			<g>
				<path fill-rule="evenodd" fill="#FFCD61" d="M1010.6,453.6h59.4c9.4,0,17.1,7.7,17.1,17.1v6.4c0,9.4-7.7,17.1-17.1,17.1h-59.4
					V453.6z"/>
				<path fill-rule="evenodd" fill="#F9A818" d="M1010.6,460.2h55.4c6.3,0,11.5,5.2,11.5,11.5v4.3c0,6.3-5.2,11.5-11.5,11.5h-55.4
					V460.2z"/>
			</g>
			<g>
				<path fill-rule="evenodd" fill="#FFCD61" d="M954.3,453.6h17.9v40.5h-17.9c-9.4,0-17.1-7.7-17.1-17.1v-6.4
					C937.3,461.3,945,453.6,954.3,453.6z"/>
				<path fill-rule="evenodd" fill="#F9A818" d="M958.3,460.2h13.9v27.4h-13.9c-6.3,0-11.5-5.2-11.5-11.5v-4.3
					C946.8,465.4,952,460.2,958.3,460.2z"/>
			</g>
			<g>
				<circle fill-rule="evenodd" fill="#5896CC" cx="994.6" cy="470.8" r="2.2"/>
				<circle fill-rule="evenodd" fill="#5896CC" cx="994.6" cy="480.1" r="2.2"/>
			</g>
		</g>
		<g>
			<path fill="#4C8EB4" d="M1020.8,138.8c0-1.1,0.9-2,1.9-2c1.1,0,1.9,0.9,1.9,2v7.8c0,1.1-0.9,1.9-1.9,1.9c-1.1,0-1.9-0.9-1.9-1.9
				V138.8z"/>
			<path fill="#2C577D" d="M1013.8,155.9c0-7,4-12.7,8.9-12.7c4.9,0,8.9,5.7,8.9,12.7l0,225.7c0,7-4,12.7-8.9,12.7
				c-4.9,0-8.9-5.7-8.9-12.7V155.9z"/>
			<path fill="#F9A818" d="M1011.5,168.8c0-6.2,5-11.2,11.2-11.2c6.2,0,11.2,5,11.2,11.2l0,202.6c0,6.2-5,11.2-11.2,11.2
				c-6.2,0-11.2-5-11.2-11.2L1011.5,168.8z"/>
			<path fill="#2C577D" d="M1011.5,368.8L1005,355V294c0,0,1.7-3.4,4.3-5.6V339c0,0,11.2,8.6,25.5,1.7v28.5
				C1034.8,369.2,1022.7,376.1,1011.5,368.8z"/>
		</g>
		<g>
			<path fill-rule="evenodd" fill="#2C577D" d="M939.1,335.4v-21c0-0.8,0.7-1,1.5-0.3l5.9,4.7c0.8,0.6,1.5,1.8,1.5,2.6v21
				c0,0.8-0.7,1-1.5,0.3l-5.9-4.7C939.8,337.4,939.1,336.2,939.1,335.4z"/>
			<path fill-rule="evenodd" fill="#FFFFFF" d="M937.4,330.5v-29.1c0-1.1,0.9-2,2-2h8.2c1.1,0,2,0.9,2,2l0,29.1c0,1.1-0.9,2-2,2
				h-8.2C938.3,332.5,937.4,331.6,937.4,330.5z"/>
			<path fill-rule="evenodd" fill="#FFFFFF" d="M928.8,313.9v-97.3c0-2.7,2.2-4.9,4.9-4.9l19.7,0c2.7,0,4.9,2.2,4.9,4.9l0,97.3
				c0,5.6-6.4,9.3-8.2,9.3H937C935.2,323.2,928.8,319.5,928.8,313.9z"/>
			<path fill-rule="evenodd" fill="#F2837B" d="M924.9,310.4v-90.3c0-1.9,1.6-3.5,3.5-3.5h30.3c1.9,0,3.5,1.6,3.5,3.5l0,90.3
				c0,1.9-1.6,3.5-3.5,3.5h-30.3C926.5,313.9,924.9,312.3,924.9,310.4z"/>
			<rect x="924.9" y="221.6" fill-rule="evenodd" fill="#EE4E42" width="37.3" height="87.2"/>
			<path fill-rule="evenodd" fill="#F2837B" d="M924.9,387.7v-33.5c0-1.9,1.6-3.5,3.5-3.5h30.3c1.9,0,3.5,1.6,3.5,3.5v33.5
				c0,1.9-1.6,3.5-3.5,3.5l-30.3,0C926.5,391.2,924.9,389.6,924.9,387.7z"/>
			<path fill-rule="evenodd" fill="#EE4E42" d="M928.5,359.3v32.2c0,1.5,1.3,2.8,2.8,2.8h24.4c1.5,0,2.8-1.3,2.8-2.8v-32.2
				c0-1.5-1.3-2.8-2.8-2.8h-24.4C929.8,356.5,928.5,357.7,928.5,359.3z"/>
		</g>
		<g>
			<path fill="#FFFFFF" d="M393.2,416.7c-43.5,16.9-99.1,28.2-146.4,25.6c-10.3-0.6-20.2-1.8-29.5-3.8v-3.9c9.3,2,19.3,3.3,29.7,3.9
				c46.8,2.6,101.8-8.7,144.8-25.4L393.2,416.7L393.2,416.7z M217.3,231.5c2.8-1,5.6-1.7,8.4-2.1c16.6-2.7,31.8,3.6,41.9,14.2
				c10.2,10.7,15.3,25.8,11.9,40.8c-4.1,17.9-20.4,35.6-55,45.1c-2.5,0.7-4.9,1.3-7.3,1.8v-3.9c2-0.5,4.1-1,6.3-1.6
				c33-9,48.5-25.5,52.3-42.2c3.1-13.7-1.6-27.5-11-37.3c-9.3-9.8-23.3-15.6-38.6-13.1c-3,0.5-6,1.3-9,2.4V231.5z M217.3,438.5
				c-14.3-3.1-27.3-7.9-38-14.8c-18-11.6-29.9-28.9-32.3-53.4c-1.5-14.6,0.5-31.7,6.5-51.7c-3-2.6-5.8-5.5-8.4-8.7
				c-8.5-10.5-14.6-23.9-18.7-39c-12.6-46.2-6.9-108.2,3.3-149.4l3.8-18l2.3,7.1l-2.4,11.8c-10.1,40.7-15.8,101.9-3.3,147.4
				c4,14.6,9.8,27.5,18,37.6c2.1,2.6,4.3,4.9,6.6,7.1c1.5-4.6,3.2-9.4,5.2-14.4c16.3-41.5,37.5-61.9,57.5-68.7v4
				c-18.7,6.9-38.4,26.6-53.9,66c-2.1,5.4-4,10.6-5.6,15.7c6.2,4.9,13.4,8.6,21.7,10.6c10.7,2.6,23.2,2.7,37.8-0.6v3.9
				c-14.8,3.2-27.7,3.1-38.7,0.4c-8.3-2.1-15.6-5.6-22-10.4c-5.5,18.8-7.3,35-5.9,48.7c2.3,23.2,13.6,39.7,30.6,50.6
				c10.2,6.6,22.4,11.2,36,14.1V438.5z"/>
			<g>
				
					<ellipse transform="matrix(0.1884 0.9821 -0.9821 0.1884 216.6077 -18.4601)" fill-rule="evenodd" fill="#E6E6E6" cx="119.5" cy="121.8" rx="56.9" ry="43.5"/>
				
					<ellipse transform="matrix(0.1884 0.9821 -0.9821 0.1884 223.8782 -14.4763)" fill-rule="evenodd" fill="#FFFFFF" cx="120.7" cy="128.2" rx="47.2" ry="36"/>
				<path fill-rule="evenodd" fill="#4D4D4D" d="M130.2,177.7c-0.3,0.1-0.6,0.1-0.9,0.2l-5.6-29.2l1.8-0.3l5.6,29.2
					C130.8,177.6,130.5,177.7,130.2,177.7z"/>
				<path fill-rule="evenodd" fill="#4D4D4D" d="M132.1,169.6l-6.6,1.3c-1.5,0.3-2.9-0.7-3.2-2.2l-5.8-30.1
					c-0.3-1.5,0.7-2.9,2.2-3.2l6.6-1.3c1.5-0.3,2.9,0.7,3.2,2.2l5.8,30.1C134.5,167.8,133.6,169.3,132.1,169.6z"/>
				<path fill-rule="evenodd" fill="#B3B3B3" d="M130.2,167.7l-3.6,0.7c-0.8,0.2-1.6-0.4-1.8-1.2l-5.4-28.3
					c-0.2-0.8,0.4-1.6,1.2-1.8l3.6-0.7c0.8-0.2,1.6,0.4,1.8,1.2l5.4,28.3C131.5,166.8,131,167.6,130.2,167.7z"/>
			</g>
		</g>
		<g>
			<rect x="1072" y="302.6" fill-rule="evenodd" fill="#FFCD61" width="82.9" height="82.9"/>
			<polygon fill-rule="evenodd" fill="#FFAE00" points="1072,330.2 1072,302.6 1089.7,302.6 			"/>
			<path fill-rule="evenodd" fill="#FFEABD" d="M1072,330.2c7.7-3.8,15.4-5.5,23-3.7c-4.9-7-6.2-15.2-5.3-23.9L1072,330.2z"/>
			<rect x="1072" y="375.6" fill-rule="evenodd" fill="#F9A818" width="82.9" height="9.9"/>
		</g>
		<g>
			<rect x="927.6" y="634.6" fill-rule="evenodd" fill="#EE4E42" width="199.4" height="32.3"/>
			<g>
				<rect x="938.2" y="634.6" fill-rule="evenodd" fill="#FFCD61" width="178.1" height="7"/>
				<rect x="1106.3" y="634.6" fill-rule="evenodd" fill="#FFCD61" width="3.8" height="16.2"/>
				<rect x="1093.8" y="634.6" fill-rule="evenodd" fill="#FFCD61" width="3.8" height="16.2"/>
				<rect x="1081.4" y="634.6" fill-rule="evenodd" fill="#FFCD61" width="3.8" height="16.2"/>
				<rect x="1068.9" y="634.6" fill-rule="evenodd" fill="#FFCD61" width="3.8" height="16.2"/>
				<rect x="1056.5" y="634.6" fill-rule="evenodd" fill="#FFCD61" width="3.8" height="16.2"/>
				<rect x="1044" y="634.6" fill-rule="evenodd" fill="#FFCD61" width="3.8" height="16.2"/>
				<rect x="1031.6" y="634.6" fill-rule="evenodd" fill="#FFCD61" width="3.8" height="16.2"/>
				<rect x="1019.1" y="634.6" fill-rule="evenodd" fill="#FFCD61" width="3.8" height="16.2"/>
				<rect x="1006.7" y="634.6" fill-rule="evenodd" fill="#FFCD61" width="3.8" height="16.2"/>
				<rect x="994.3" y="634.6" fill-rule="evenodd" fill="#FFCD61" width="3.8" height="16.2"/>
				<rect x="981.8" y="634.6" fill-rule="evenodd" fill="#FFCD61" width="3.8" height="16.2"/>
				<rect x="969.4" y="634.6" fill-rule="evenodd" fill="#FFCD61" width="3.8" height="16.2"/>
				<rect x="956.9" y="634.6" fill-rule="evenodd" fill="#FFCD61" width="3.8" height="16.2"/>
				<rect x="944.5" y="634.6" fill-rule="evenodd" fill="#FFCD61" width="3.8" height="16.2"/>
			</g>
		</g>
		<g>
			<g>
				
					<rect x="97.4" y="925.4" transform="matrix(0.8559 -0.5171 0.5171 0.8559 -500.044 205.8691)" fill="#FDFDFD" width="43.9" height="149.7"/>
				
					<rect x="115.4" y="1017" transform="matrix(0.8559 -0.5171 0.5171 0.8559 -512.797 219.413)" fill="#5E0F16" width="43.9" height="26"/>
				
					<rect x="98.6" y="989.1" transform="matrix(0.8559 -0.5171 0.5171 0.8559 -500.839 206.7148)" fill="#8E1621" width="43.9" height="26"/>
				
					<rect x="81.7" y="961.2" transform="matrix(0.8559 -0.5171 0.5171 0.8559 -488.8486 193.9893)" fill="#BD1D2D" width="43.9" height="26"/>
				
					<rect x="64.9" y="933.4" transform="matrix(0.8559 -0.5171 0.5171 0.8559 -476.8936 181.2909)" fill="#CA4B56" width="43.9" height="26"/>
			</g>
			<g>
				
					<rect x="112.2" y="915.4" transform="matrix(0.9629 -0.2697 0.2697 0.9629 -262.1393 72.8884)" fill="#FDFDFD" width="43.9" height="149.7"/>
				
					<rect x="121.5" y="1010.6" transform="matrix(0.9629 -0.2697 0.2697 0.9629 -270.8032 76.6509)" fill="#EF4136" width="43.9" height="26"/>
				
					<rect x="112.7" y="979.3" transform="matrix(0.9629 -0.2697 0.2697 0.9629 -262.6345 73.104)" fill="#F2675D" width="43.9" height="26"/>
				
					<rect x="104" y="947.9" transform="matrix(0.963 -0.2697 0.2697 0.963 -254.4828 69.5648)" fill="#F48C85" width="43.9" height="26"/>
				
					<rect x="95.2" y="916.6" transform="matrix(0.9629 -0.2697 0.2697 0.9629 -246.422 66.0636)" fill="#F9B3AF" width="43.9" height="26"/>
			</g>
			<g>
				
					<rect x="129" y="909.6" transform="matrix(1 -2.742724e-03 2.742724e-03 1 -2.6996 0.4179)" fill="#FDFDFD" width="43.9" height="149.7"/>
				<polygon fill="#F6931D" points="173.1,1032.2 129.2,1032.3 129.1,1006.2 173,1006.1 				"/>
				
					<rect x="129" y="973.6" transform="matrix(1 -2.711464e-03 2.711464e-03 1 -2.6747 0.4131)" fill="#F9A84B" width="43.9" height="26"/>
				
					<rect x="128.9" y="941.1" transform="matrix(1 -2.742670e-03 2.742670e-03 1 -2.6162 0.4175)" fill="#F9BF77" width="43.9" height="26"/>
				<polygon fill="#FBD4A5" points="172.8,934.5 128.9,934.6 128.8,908.6 172.8,908.5 				"/>
			</g>
			<g>
				
					<rect x="146.8" y="908.6" transform="matrix(0.9644 0.2644 -0.2644 0.9644 266.067 -9.6265)" fill="#FDFDFD" width="43.9" height="149.7"/>
				
					<rect x="137.6" y="1003.9" transform="matrix(0.9644 0.2644 -0.2644 0.9644 274.6008 -6.006)" fill="#8CC63F" width="43.9" height="26"/>
				
					<rect x="146.2" y="972.5" transform="matrix(0.9644 0.2645 -0.2645 0.9644 266.6483 -9.3957)" fill="#A3D164" width="43.9" height="26"/>
				
					<rect x="154.9" y="941.1" transform="matrix(0.9644 0.2645 -0.2645 0.9644 258.6191 -12.7933)" fill="#BADD8C" width="43.9" height="26"/>
				
					<rect x="163.5" y="909.7" transform="matrix(0.9644 0.2644 -0.2644 0.9644 250.6189 -16.188)" fill="#D1E8B1" width="43.9" height="26"/>
			</g>
			<g>
				
					<rect x="164.2" y="912.3" transform="matrix(0.8587 0.5124 -0.5124 0.8587 532.1847 44.0459)" fill="#FDFDFD" width="43.9" height="149.7"/>
				
					<rect x="146.4" y="1004" transform="matrix(0.8587 0.5124 -0.5124 0.8587 544.9162 57.3634)" fill="#00A79C" width="43.9" height="26"/>
				
					<rect x="163.1" y="976" transform="matrix(0.8587 0.5125 -0.5125 0.8587 533.0102 44.8897)" fill="#33B8B1" width="43.9" height="26"/>
				
					<rect x="179.8" y="948.1" transform="matrix(0.8587 0.5124 -0.5124 0.8587 520.9978 32.3763)" fill="#66CAC3" width="43.9" height="26"/>
				<polygon fill="#99DBD8" points="230.7,955.6 192.9,933.1 206.3,910.7 244,933.2 				"/>
			</g>
			<g>
				
					<rect x="180" y="920.6" transform="matrix(0.6906 0.7232 -0.7232 0.6906 782.4025 161.871)" fill="#FDFDFD" width="43.9" height="149.7"/>
				
					<rect x="154.9" y="1006.4" transform="matrix(0.6907 0.7232 -0.7232 0.6907 791.9457 187.4259)" fill="#1C75BC" width="43.9" height="26"/>
				
					<rect x="178.5" y="983.9" transform="matrix(0.6906 0.7232 -0.7232 0.6906 783.0293 163.489)" fill="#4990C8" width="43.9" height="26"/>
				<polygon fill="#77ACD6" points="229.7,999.4 199.4,967.6 218.2,949.6 248.6,981.4 				"/>
				
					<rect x="225.5" y="939" transform="matrix(0.6907 0.7231 -0.7231 0.6907 764.9869 115.47)" fill="#A3C8E4" width="43.9" height="26"/>
			</g>
			<path fill="#FDE8BD" d="M161.7,1049.4c4.9,18,3.6,37.4-6,53.6c-3.3,5.7-14.1,17.7-18.4,6.1c-1.9-5-1.1-11.5-0.4-16.7
				c0.6-5.1,1.5-10.6,2.9-15.6c0.5-1.9-2.4-2.6-2.9-0.7c-1.6,5.7-2.5,12-3.1,17.8c-0.6,5.6-1.2,12.4,1.3,17.6
				c3.4,6.8,10.6,6.5,15.9,2c8.4-7.1,12.8-18.7,15.1-29.2c2.5-11.8,1.7-24.2-1.5-35.8C164,1046.7,161.1,1047.5,161.7,1049.4z"/>
		</g>
		<g>
			<circle fill-rule="evenodd" fill="#FFFFFF" cx="1033" cy="777.4" r="67.2"/>
			<circle fill-rule="evenodd" fill="#E6E6E6" cx="1033" cy="777.4" r="63.1"/>
			<path fill-rule="evenodd" fill="#FFFFFF" d="M955.4,798.4l-1-4.4c-0.6-2.8,1.2-5.6,4-6.2l32.3-7c2.8-0.6,5.6,1.2,6.2,4l1,4.4
				c0.6,2.8-1.2,5.6-4,6.2l-32.3,7C958.8,803,956,801.2,955.4,798.4z"/>
			<path fill-rule="evenodd" fill="#E6E6E6" d="M957.8,797.1l-0.6-2.8c-0.4-1.8,0.8-3.6,2.6-4l30.3-6.6c1.8-0.4,3.6,0.8,4,2.6
				l0.6,2.8c0.4,1.8-0.8,3.6-2.6,4l-30.3,6.6C960,800,958.2,798.8,957.8,797.1z"/>
			<circle fill-rule="evenodd" fill="#FFFFFF" cx="1033" cy="777.4" r="52.9"/>
			<circle fill-rule="evenodd" fill="#B3B3B3" cx="1033" cy="777.4" r="47.7"/>
			<circle fill-rule="evenodd" fill="#886734" cx="1033" cy="777.4" r="40.5"/>
			<circle fill-rule="evenodd" fill="#694F28" cx="1033" cy="777.4" r="29.3"/>
			<path fill-rule="evenodd" fill="#BD9D6E" d="M1005.2,754.5c5-6,11.9-10.5,20.2-12.3c19.5-4.2,38.6,8.1,42.8,27.6
				c1.8,8.2,0.6,16.4-2.8,23.5c2.4-6.4,3.1-13.5,1.5-20.7c-4.3-19.8-23.8-32.3-43.5-28C1016.2,746.1,1010,749.6,1005.2,754.5z"/>
		</g>
		<g>
			<rect x="985.8" y="1033.9" fill-rule="evenodd" fill="#F2837B" width="82.9" height="82.9"/>
			<polygon fill-rule="evenodd" fill="#F06358" points="1068.7,1089.3 1068.7,1116.8 1051,1116.8 			"/>
			<path fill-rule="evenodd" fill="#FAA6A0" d="M1068.7,1089.3c-7.7,3.8-15.4,5.5-23,3.7c4.9,7,6.2,15.2,5.3,23.9L1068.7,1089.3z"/>
			<rect x="985.8" y="1033.9" fill-rule="evenodd" fill="#FAA6A0" width="82.9" height="9.9"/>
		</g>
	</g>
</g>
</svg>
